<?xml version="1.0" encoding="utf-8"?>
<!-- Generator: Adobe Illustrator 16.0.0, SVG Export Plug-In . SVG Version: 6.00 Build 0)  -->
<!DOCTYPE svg PUBLIC "-//W3C//DTD SVG 1.1//EN" "http://www.w3.org/Graphics/SVG/1.1/DTD/svg11.dtd">
<svg version="1.1" id="Layer_1" xmlns="http://www.w3.org/2000/svg" xmlns:xlink="http://www.w3.org/1999/xlink" x="0px" y="0px"
	 width="396px" height="120px" viewBox="0 0 396 120" enable-background="new 0 0 396 120" xml:space="preserve">
<g>
	<path fill="#FFFFFF" d="M24.655,33.778c-4.122,5.604-4.14,12.582-0.034,15.585c4.106,2.999,10.781,0.889,14.903-4.718
		c4.125-5.605,4.139-12.578,0.034-15.578C35.455,26.061,28.786,28.173,24.655,33.778"/>
	<path fill="#FFFFFF" d="M24.149,23.599c4.798-4.309,7.821-8.756,6.76-9.921c-1.067-1.167-5.818,1.387-10.616,5.701
		c-4.799,4.312-7.823,8.756-6.754,9.923C14.601,30.468,19.35,27.917,24.149,23.599"/>
	<path fill="#FFFFFF" d="M33.804,81.234c-2.871-7.231-9.188-11.551-14.1-9.639c-4.919,1.911-6.573,9.321-3.701,16.559
		c2.878,7.24,9.194,11.557,14.109,9.646C35.025,95.895,36.679,88.473,33.804,81.234"/>
	<path fill="#FFFFFF" d="M9.411,38.58c-3.362-0.243-6.69,7.819-7.434,18.01C1.234,66.775,3.355,75.234,6.72,75.477
		c3.361,0.238,6.689-7.83,7.435-18.007C14.896,47.275,12.776,38.822,9.411,38.58"/>
	<path fill="#FFFFFF" d="M54.608,15.766c8.85-0.726,15.855-3.781,15.646-6.815c-0.125-1.777-2.677-3.149-6.53-3.842
		c-0.509-0.093-2.571-0.299-3.066-0.322c-2.104-0.086-4.239-0.06-6.391,0.09c-2.261,0.16-4.474,0.462-6.645,0.875
		c-0.363,0.069-0.723,0.143-1.087,0.221c-0.521,0.136-1.022,0.282-1.506,0.435c-4.236,1.339-6.961,3.253-6.828,5.167
		C38.41,14.611,45.759,16.49,54.608,15.766"/>
	<path fill="#FFFFFF" d="M87.856,25.936c5.967,5.146,12.458,7.617,14.5,5.519c2.045-2.1-1.125-7.973-7.09-13.115
		c-5.962-5.147-12.454-7.624-14.5-5.525C78.719,14.919,81.899,20.791,87.856,25.936"/>
	<path fill="#FFFFFF" d="M65.92,34.042c-1.651,3.558-0.201,7.754,3.248,9.383c3.437,1.618,7.567,0.064,9.22-3.479
		c1.651-3.548,0.206-7.752-3.226-9.381C71.713,28.936,67.575,30.493,65.92,34.042"/>
	<path fill="#FFFFFF" d="M79.183,81.273c0.836-1.822,0.919-4.101,0.076-5.916c-0.946-2.037-2.978-3.094-4.647-4.455
		c-3.141-2.549-5.064-6.092-4.615-10.205c0.135-1.224,0.453-2.583,0.981-3.707c0.523-1.117,1.21-2.154,2.069-3.034
		c0.816-0.841,1.735-1.595,2.769-2.138c0.976-0.505,2.032-0.921,3.105-1.12c1.005-0.187,2.048-0.254,3.062-0.15
		c2.144,0.211,4.209,1.249,6.352,1.305c2.663,0.08,5.276-1.439,6.519-4.083c1.107-2.341,0.853-4.971-0.438-6.959
		c-1.077-1.707-2.971-2.889-5.162-3.059c-1.973-0.151-3.996,0.561-5.381,1.973c-0.232,0.237-0.448,0.494-0.64,0.763
		c-0.077,0.106-0.154,0.221-0.229,0.329c-1.618,2.37-3.375,4.847-5.972,6.165c-0.989,0.509-2.096,0.791-3.182,0.986
		c-2.108,0.383-4.337,0.136-6.402-0.838c-2.065-0.976-3.813-2.627-4.885-4.682c-0.666-1.262-1.063-2.503-1.232-3.931
		c-0.295-2.451,0.214-4.743,0.894-7.082c0.104-0.36,0.195-0.718,0.262-1.081c0.118-0.649,0.16-1.314,0.087-1.973
		c-0.237-2.261-1.509-4.239-3.41-5.373c-0.246-0.138-0.497-0.274-0.757-0.389c-3.426-1.473-7.44,0.114-9.048,3.616
		c-1.227,2.663-0.702,5.689,1.081,7.722c1.205,1.368,2.906,2.179,4.252,3.395c1.304,1.182,2.475,2.52,3.171,4.176
		c0.771,1.818,1.115,3.853,0.794,5.831c-0.179,1.115-0.492,2.35-0.97,3.379c-0.48,1.04-1.148,2.053-1.917,2.903
		c-3.37,3.736-8.484,4.241-13.071,2.769c-3.525-1.136-7.381,0.163-8.985,3.605c-1.665,3.541-0.208,7.732,3.239,9.364
		c1.718,0.808,3.653,0.808,5.414,0.142c2.045-0.772,3.064-2.324,4.274-4.037c0.648-0.916,1.418-1.746,2.208-2.555
		c2.674-2.735,6.785-4.026,10.535-3.001c0.621,0.172,1.248,0.396,1.825,0.662c1.061,0.498,2.071,1.182,2.904,2.002
		c2.213,2.199,3.373,5.247,3.267,8.346c-0.11,3.338-2.081,6.549-0.924,9.906c0.598,1.719,1.908,3.188,3.579,3.951
		C73.46,86.371,77.559,84.789,79.183,81.273"/>
	<path fill="#FFFFFF" d="M99.277,58.2c-4.755-1.944-10.683,1.456-13.229,7.577C83.503,71.9,85.3,78.451,90.062,80.393
		c4.759,1.933,10.687-1.455,13.232-7.586C105.839,66.68,104.048,60.142,99.277,58.2"/>
	<path fill="#FFFFFF" d="M109.223,44.355c-0.537-3.904-3.016-6.787-5.533-6.443c-2.518,0.349-4.128,3.785-3.59,7.695
		c0.537,3.901,3.011,6.782,5.533,6.435C108.156,51.699,109.763,48.257,109.223,44.355"/>
	<path fill="#FFFFFF" d="M43.364,107.748c-7.716-2.33-14.425-2.719-14.98-0.863c-0.146,0.486,0.153,1.088,0.815,1.74
		c0.22,0.219,0.48,0.447,0.779,0.678c1.184,0.922,4.795,2.581,5.203,2.766c4.421,1.966,9.141,3.392,14.076,4.177
		c3.935,0.532,6.725,0.257,7.071-0.912C56.88,113.484,51.076,110.084,43.364,107.748"/>
	<path fill="#FFFFFF" d="M114.036,59.338c-1.28-0.339-3.647,5.188-5.296,12.46c-1.679,7.386-1.97,13.716-0.631,14.031
		c1.322,0.304,3.736-5.503,5.368-12.854C115.078,65.734,115.318,59.674,114.036,59.338"/>
	<path fill="#FFFFFF" d="M79.211,94.137c-8.074,4.912-12.521,12.11-9.935,16.072c2.045,3.133,7.861,3.305,14.191,0.82
		c0.45-0.178,2.288-1.065,2.75-1.327c2.619-1.474,5.119-3.156,7.461-5.028c0.357-0.326,0.701-0.664,1.031-1.003
		c3.965-4.065,5.637-8.458,3.814-11.253C95.933,88.45,87.286,89.221,79.211,94.137"/>
	<path fill="#FFFFFF" d="M47.994,82.563c-4.661,2.938-6.288,8.918-3.565,13.547c2.871,4.914,9.5,6.593,14.761,3.482
		c5.376-3.166,6.818-9.852,3.331-14.613C59.216,80.482,52.747,79.499,47.994,82.563z"/>
</g>
<g>
	<path fill="#FFFFFF" d="M288.814,73.611c1.845,0.021,3.355-1.441,3.379-3.264c0.017-1.834-1.452-3.334-3.303-3.357
		c-1.834-0.021-3.347,1.443-3.369,3.27C285.501,72.088,286.98,73.588,288.814,73.611z"/>
	<path fill="#FFFFFF" d="M220.145,83.958c-0.104-1.368-0.437-2.701-0.968-3.968c-0.647-1.551-1.581-2.941-2.766-4.133
		c-0.875-0.883-1.854-1.627-2.927-2.217c-0.389-0.218-0.785-0.408-1.195-0.588c-1.604-0.677-3.311-1.025-5.063-1.025
		c-1.758,0-3.453,0.35-5.061,1.025c-0.922,0.398-1.779,0.887-2.582,1.471c-0.547,0.399-1.059,0.848-1.536,1.334
		c-0.16,0.154-0.311,0.311-0.453,0.477c-0.146-0.166-0.296-0.322-0.45-0.477c-0.872-0.877-1.839-1.614-2.909-2.203
		c-0.392-0.219-0.797-0.416-1.219-0.602c-1.601-0.677-3.304-1.025-5.061-1.025c-1.755,0-3.459,0.35-5.063,1.025
		c-0.911,0.398-1.769,0.881-2.565,1.461c-0.547,0.403-1.064,0.848-1.55,1.342c-1.191,1.189-2.119,2.582-2.77,4.127
		c-0.665,1.594-1.009,3.279-1.012,5.016v14.186c0,3.586,2.894,6.478,6.48,6.533h0.182v-8.918l-0.003-11.468v-0.595
		c0.154-3.391,2.923-6.109,6.301-6.109c3.29,0,5.995,2.57,6.276,5.835v14.722c0,3.586,2.901,6.478,6.48,6.533h0.188l-0.002-8.934
		V85.736c0.014-0.235,0.02-0.471,0.02-0.705l0,0c0-3.526,2.829-6.401,6.307-6.401c3.201,0,5.857,2.445,6.254,5.589v14.965
		c0,3.586,2.893,6.478,6.479,6.533h0.186l-0.007-19.605c0.033-0.36,0.046-0.717,0.046-1.082
		C220.188,84.675,220.18,84.313,220.145,83.958L220.145,83.958z"/>
	<path fill="#FFFFFF" d="M170.277,88.486c-0.205-9.123-7.585-16.459-16.659-16.459c-9.199,0-16.664,7.535-16.664,16.848
		c0,9.307,7.464,16.842,16.664,16.842c4.021,0,7.713-1.441,10.593-3.838c1.018,2.239,3.262,3.799,5.889,3.838h0.18v-17.23H170.277
		L170.277,88.486z M153.619,99.131c-5.6,0-10.141-4.592-10.141-10.256c0-5.658,4.541-10.256,10.141-10.256
		c5.598,0,10.142,4.598,10.142,10.256C163.764,94.541,159.22,99.131,153.619,99.131z"/>
	<path fill="#FFFFFF" d="M395.125,93.122c-0.786-2.565-2.771-4.478-5.202-5.544c-1.778-0.775-3.67-1.146-5.553-1.563
		c-0.527-0.115-1.063-0.234-1.588-0.379c-1.484-0.398-3.255-0.642-4.313-1.859c-0.514-0.59-0.797-1.357-0.797-2.141
		c0-1.959,1.697-3.22,3.488-3.574c0.484-0.092,1.004-0.131,1.506-0.109c1.037,0.045,2.053,0.229,2.98,0.699
		c0.537,0.272,1.03,0.623,1.556,0.928c1.237,0.738,2.794,1.295,4.246,1.287h0.026v0.008h3.793v-0.122
		c-0.043-0.157-0.08-0.315-0.137-0.47c-0.371-1.184-0.943-2.285-1.681-3.273c-1.113-1.502-2.606-2.75-4.353-3.631
		c-0.235-0.087-0.453-0.195-0.67-0.309c-1.615-0.711-3.425-1.1-5.332-1.1h-0.16c-1.645,0.043-3.274,0.36-4.834,0.961
		c-0.246,0.094-0.485,0.194-0.727,0.305c-2.297,1.088-4.186,2.811-5.387,4.918c-0.709,1.322-1.124,2.795-1.124,4.377
		c0,2.707,1.243,4.791,3.55,6.277c1.461,0.955,3.15,1.537,4.839,1.939c1.56,0.372,3.101,0.786,4.628,1.229
		c1.137,0.326,2.396,0.617,3.432,1.178c0.531,0.291,1.028,0.766,1.287,1.316c0.658,1.442,0.188,3.194-1.061,4.152
		c-0.305,0.234-0.68,0.453-1.049,0.583c-1.795,0.629-3.896,0.567-5.715,0.06c-0.894-0.25-1.784-0.578-2.582-1.068
		c-0.519-0.321-0.996-0.704-1.527-1.014c-0.873-0.5-1.977-0.713-2.977-0.729l0,0c-0.025,0-2.728,0-2.728,0
		c0.038,0.354,0.093,0.692,0.166,1.038c1.022,4.677,6.179,8.224,12.117,8.224c0.399,0,0.782-0.017,1.178-0.046
		c2.606-0.212,5.22-1.139,7.263-2.788c1.98-1.598,3.537-3.829,3.776-6.407C395.563,95.355,395.455,94.208,395.125,93.122
		L395.125,93.122z"/>
	<path fill="#FFFFFF" d="M313.575,78.622c2.329,0,4.452,0.808,6.151,2.151c0.066,0.059,0.131,0.108,0.197,0.164
		c1.049,0.813,2.354,1.315,3.775,1.358h5.162c-0.223-0.532-0.479-1.054-0.752-1.563c-2.092-3.819-5.59-6.739-9.801-8.012
		c-1.5-0.447-3.086-0.688-4.734-0.688c-9.201,0-16.657,7.542-16.657,16.842c0,9.307,7.456,16.848,16.657,16.848
		c1.648,0,3.234-0.246,4.734-0.693c4.211-1.27,7.709-4.19,9.801-8.01c0.276-0.504,0.525-1.021,0.752-1.559h-4.771
		c-0.065-0.005-0.327-0.005-0.393,0c-1.414,0.046-2.716,0.534-3.759,1.34c-0.08,0.059-0.157,0.125-0.239,0.195
		c-1.688,1.332-3.808,2.135-6.127,2.135c-5.601,0-10.142-4.592-10.142-10.256S307.977,78.622,313.575,78.622L313.575,78.622z"/>
	<path fill="#FFFFFF" d="M285.732,77.07h-0.176v22.115c0,3.586,2.896,6.478,6.482,6.539h0.184V83.518
		C292.227,79.952,289.316,77.07,285.732,77.07L285.732,77.07z"/>
	<path fill="#FFFFFF" d="M258.202,88.872c0-1.104-0.104-2.185-0.306-3.226c-1.489-7.764-8.246-13.619-16.364-13.619
		c-9.202,0-16.658,7.541-16.658,16.848s7.456,16.848,16.658,16.848c1.666,0,3.274-0.252,4.793-0.709
		c2.375-0.717,4.524-1.953,6.319-3.58c1.397-1.267,2.59-2.762,3.498-4.428L256.139,97c0.27-0.496,0.521-1.008,0.743-1.539h-4.532
		c-0.142-0.006-0.691-0.006-0.828,0c-1.349,0.088-2.576,0.584-3.574,1.364c-0.045,0.038-0.088,0.069-0.139,0.108
		c-1.724,1.375-3.9,2.192-6.275,2.192c-3.442,0-6.494-1.739-8.328-4.41c-0.828-1.2-1.413-2.604-1.664-4.114h26.574
		C258.171,90.034,258.202,89.455,258.202,88.872z M231.654,85.65c1.339-4.084,5.142-7.031,9.625-7.031
		c4.486,0,8.294,2.947,9.628,7.031H231.654z"/>
	<path fill="#FFFFFF" d="M366.163,88.486c-0.197-9.123-7.578-16.459-16.655-16.459c-9.201,0-16.662,7.541-16.662,16.848
		s7.461,16.842,16.662,16.842c4.024,0.006,7.715-1.441,10.594-3.838c1.016,2.234,3.27,3.799,5.887,3.844h0.181V88.486H366.163z
		 M349.508,99.131c-5.601,0-10.142-4.592-10.142-10.256s4.541-10.256,10.142-10.256c5.604,0,10.141,4.592,10.141,10.256
		S355.111,99.131,349.508,99.131z"/>
	<path fill="#FFFFFF" d="M277.688,71.975h-0.143c-3.396,0.032-6.511,1.2-8.988,3.144c-1.099,0.856-2.074,1.866-2.888,2.989
		c-1.747,2.418-2.782,5.365-2.782,8.56V99.23c0,3.558,2.875,6.436,6.436,6.494h0.205V86.666c0-3.749,2.565-6.904,6.054-7.827
		c0.19-0.055,0.39-0.097,0.59-0.136c2.687-0.738,4.667-3.156,4.718-6.043v-0.686H277.688L277.688,71.975z"/>
	<path fill="#FFFFFF" d="M188.834,27.173c-9.202,0.003-16.666,7.548-16.666,16.853c0,9.309,7.461,16.851,16.666,16.851
		c9.208,0,16.663-7.545,16.663-16.851C205.501,34.721,198.042,27.173,188.834,27.173z M188.834,54.28
		c-5.603,0-10.144-4.586-10.144-10.254c0-5.664,4.541-10.255,10.144-10.255c5.6,0,10.146,4.594,10.146,10.255
		C198.98,49.693,194.434,54.28,188.834,54.28z"/>
	<path fill="#FFFFFF" d="M153.622,33.77c2.328,0,4.455,0.805,6.156,2.154c0.061,0.054,0.128,0.112,0.197,0.163
		c1.047,0.813,2.355,1.312,3.771,1.352c0.064,0,5.165,0,5.165,0c-0.227-0.531-0.475-1.053-0.754-1.558
		c-2.091-3.82-5.592-6.738-9.799-8.01c-1.499-0.453-3.085-0.695-4.735-0.695c-9.199,0.002-16.663,7.545-16.663,16.85
		c0,9.309,7.464,16.851,16.663,16.851c1.649,0,3.239-0.246,4.735-0.696c4.216-1.269,7.712-4.188,9.799-8.015
		c0.28-0.502,0.525-1.024,0.754-1.555h-4.77c-0.064-0.003-0.328-0.003-0.392,0c-1.417,0.038-2.715,0.533-3.758,1.341
		c-0.078,0.064-0.16,0.128-0.237,0.195c-1.691,1.333-3.807,2.133-6.128,2.133c-5.601,0-10.142-4.592-10.142-10.257
		C143.483,38.358,148.019,33.77,153.622,33.77L153.622,33.77z"/>
	<path fill="#FFFFFF" d="M224.971,27.066c-4.955,0-9.339,2.423-12.019,6.137c-1.747,2.414-2.789,5.363-2.789,8.56v12.619
		c0,3.561,2.88,6.437,6.438,6.498h0.209V41.766c0-4.477,3.657-8.108,8.158-8.108c4.508,0,8.184,3.631,8.184,8.108v12.619
		c0,3.561,2.875,6.435,6.439,6.498h0.18V41.718c-0.012-2.646-0.727-5.111-1.963-7.258C235.251,30.045,230.464,27.066,224.971,27.066
		L224.971,27.066z"/>
	<path fill="#FFFFFF" d="M312.079,44.025c0-1.105-0.104-2.182-0.312-3.227c-1.48-7.763-8.25-13.626-16.352-13.626
		c-9.209,0-16.67,7.548-16.67,16.853c0,9.306,7.461,16.851,16.67,16.851c1.659,0,3.27-0.25,4.786-0.709
		c2.374-0.718,4.524-1.959,6.319-3.586c1.397-1.26,2.582-2.754,3.5-4.426l-0.006-0.002c0.272-0.497,0.519-1.017,0.735-1.542h-4.522
		c-0.141-0.009-0.693-0.006-0.832,0c-1.347,0.085-2.582,0.581-3.573,1.363c-0.052,0.039-0.093,0.075-0.142,0.109
		c-1.726,1.378-3.902,2.194-6.267,2.194c-3.455,0-6.502-1.738-8.334-4.399c-0.83-1.21-1.414-2.608-1.672-4.12h26.582
		C312.052,45.188,312.079,44.61,312.079,44.025z M285.779,40.796c1.339-4.085,5.146-7.031,9.632-7.031s8.291,2.949,9.628,7.031
		H285.779z"/>
	<path fill="#FFFFFF" d="M259.261,27.066c-4.96,0-9.338,2.423-12.019,6.137c-1.747,2.414-2.788,5.363-2.788,8.557v12.619
		c0,3.562,2.874,6.436,6.438,6.498h0.202V41.76c0-4.474,3.658-8.105,8.165-8.105c4.508,0,8.184,3.631,8.184,8.105v12.619
		c0,3.562,2.875,6.436,6.436,6.498h0.184V41.713c-0.011-2.647-0.726-5.114-1.965-7.258C269.54,30.045,264.757,27.066,259.261,27.066
		L259.261,27.066z"/>
	<path fill="#FFFFFF" d="M362.667,54.445c-1.724-0.722-2.524-2.255-2.524-4.735V33.556h0.48c3.477-0.112,6.271-2.91,6.342-6.367
		h-6.822v-2.912c0-3.595-2.931-6.504-6.55-6.504l-0.17-0.12v32.611c0,2.677,0.58,4.784,1.73,6.416
		c1.93,2.77,5.452,4.197,10.452,4.197h1.361v-0.333C366.968,57.741,365.175,55.354,362.667,54.445L362.667,54.445z"/>
	<path fill="#FFFFFF" d="M333.429,33.767c2.33,0,4.453,0.811,6.15,2.152c0.063,0.056,0.137,0.112,0.198,0.166
		c1.049,0.815,2.354,1.314,3.775,1.356c0.063,0,5.165,0,5.165,0c-0.229-0.536-0.478-1.053-0.756-1.56
		c-2.091-3.82-5.589-6.743-9.8-8.015c-1.498-0.448-3.086-0.696-4.734-0.696c-9.207,0-16.662,7.546-16.662,16.853
		c0,9.305,7.455,16.852,16.662,16.852c1.648,0,3.236-0.246,4.734-0.699c4.211-1.266,7.709-4.188,9.8-8.01
		c0.278-0.502,0.526-1.027,0.756-1.558h-4.771c-0.065-0.002-0.327-0.002-0.396,0c-1.413,0.041-2.716,0.534-3.759,1.341
		c-0.079,0.063-0.158,0.125-0.239,0.195c-1.688,1.33-3.802,2.133-6.127,2.133c-5.6,0-10.146-4.589-10.146-10.254
		C323.282,38.358,327.829,33.767,333.429,33.767L333.429,33.767z"/>
</g>
</svg>
