<?xml version="1.0" encoding="utf-8"?>
<!-- Generator: Adobe Illustrator 16.0.0, SVG Export Plug-In . SVG Version: 6.00 Build 0)  -->
<!DOCTYPE svg PUBLIC "-//W3C//DTD SVG 1.1//EN" "http://www.w3.org/Graphics/SVG/1.1/DTD/svg11.dtd">
<svg version="1.1" id="Capa_1" xmlns="http://www.w3.org/2000/svg" xmlns:xlink="http://www.w3.org/1999/xlink" x="0px" y="0px"
	 width="258px" height="67px" viewBox="0 0 258 67" enable-background="new 0 0 258 67" xml:space="preserve">
<g transform="translate(0.000000,67.000000) scale(0.100000,-0.100000)">
	<path fill="#FFFFFF" stroke="#FFFFFF" stroke-miterlimit="10" d="M45,658.999c-43.999-25-45-30-45-323.999
		C0,54.004,0,52.998,22.998,32.002C46.001,10,52.002,10,337.002,10C605,10,627.998,10.996,642.998,27.998
		C657.998,44.004,660,80.996,660,337.002c0,281.997-1.001,290-21.001,308.999C620,663.999,597.002,665,341.001,667.002
		C152.002,668.999,58.999,666.001,45,658.999z M636.001,625c11.997-17.998,13.999-35,10-61.001l-7.002-36.001l-116.997,4.004
		c-64.004,1.997-126.001,6.997-137.002,10.996c-12.998,5-12.002,3.003,2.998-3.999c14.004-7.998,21.001-17.998,17.002-26.997
		c-2.998-8.003,6.001-25,20-38.003c30-27.998,31.001-33.999,3.999-67.998c-27.998-36.001-105-37.002-146.001-2.002
		c-25,22.002-25.996,26.001-15,52.002C280,483.999,278.999,482.998,245,447.998c-51.001-55-47.002-96.997,18.999-165.996
		c58.999-62.998,123.003-77.998,192.002-46.006c56.997,27.002,86.001,93.008,47.998,108.003c-10,3.999-13.999,15-11.997,33.003
		c5,43.999,30,33.999,45-16.001c16.997-58.999,2.998-110.005-44.004-161.997C432.998,132.002,366.001,110,290,130
		c-56.001,15-142.998,97.002-166.001,155.996c-32.998,85.005,3.999,177.002,93.999,236.006c26.001,15.996,37.002,26.997,25,22.998
		C230,542.002,175,537.998,120,537.002L20,535v47.002c0,33.999,5,50,17.998,56.997C47.998,645,163.999,650,337.002,650H620
		L636.001,625z"/>
	<path fill="#FFFFFF" stroke="#FFFFFF" stroke-miterlimit="10" d="M1730,581.001c0-23.999-2.998-28.003-20-23.999
		c-30,7.998-60-24.004-60-63.003c0-45,20.996-61.997,75-61.997l45,0.996v89.004c0,80.996-2.002,87.998-20,87.998
		C1735,610,1730,602.998,1730,581.001z M1725,493.999c0-31.997-20.996-38.999-37.998-11.997
		c-7.998,11.997-7.002,20.996,2.998,31.997C1709.004,537.998,1725,527.998,1725,493.999z"/>
	<path fill="#FFFFFF" stroke="#FFFFFF" stroke-miterlimit="10" d="M2400,581.001c0-23.999-2.998-28.003-20-23.999
		c-32.002,7.998-60-24.004-60-68.003c0-45,15.996-56.997,77.998-56.001H2440v88.003c0,81.997-2.002,88.999-20,88.999
		C2405,610,2400,602.998,2400,581.001z M2395,493.999c0-31.997-20.996-38.999-37.998-11.997
		c-7.998,11.997-7.002,20.996,2.998,31.997C2379.004,537.998,2395,527.998,2395,493.999z"/>
	<path fill="#FFFFFF" stroke="#FFFFFF" stroke-miterlimit="10" d="M780,513.999v-85l52.002,3.003
		c60,3.999,80.996,27.998,23.999,27.998C827.002,460,820,463.999,820,480s7.002,20,30,20c22.998,0,30,3.999,30,20s-7.002,20-30,20
		c-20,0-30,5-30,15s10,15,30,15c20,0,30,5,30,15c0,11.001-12.002,15-50,15h-50V513.999z"/>
	<path fill="#FFFFFF" stroke="#FFFFFF" stroke-miterlimit="10" d="M1450,582.002c-24.004-8.003-30-24.004-22.998-67.002
		c10-67.002,20-85,47.998-85c27.002,0,35,23.999,10,33.999c-9.004,3.003-15,18.003-15,36.001c0,20,5,30,15,30
		c7.998,0,15,7.002,15,15s-5.996,15-14.004,15c-7.998,0-15.996,6.001-17.998,12.998C1465.996,581.001,1457.998,585,1450,582.002z"/>
	<path fill="#FFFFFF" stroke="#FFFFFF" stroke-miterlimit="10" d="M900,552.002c0-4.004,7.002-18.003,16.001-31.001
		c16.001-22.002,16.001-25,0-51.001c-20-33.999-20-40-2.002-40c8.003,0,21.001,8.999,30,21.001l13.999,21.001l11.001-21.001
		C976.001,438.999,990,430,1001.001,430h21.001l-20,33.999c-20,33.003-20,33.003,0,65l20,31.001h-21.001
		C990,560,975,550,968.999,537.998L957.002,515l-10,22.998C937.998,557.998,900,570,900,552.002z"/>
	<path fill="#FFFFFF" stroke="#FFFFFF" stroke-miterlimit="10" d="M1040,468.999c0-81.001,2.002-90,17.998-86.997
		c10,1.997,18.003,13.999,20,30c2.002,20,7.002,25,23.003,20.996C1130,425,1160,457.002,1160,495c0,50-47.998,82.998-77.998,52.998
		c-9.004-8.999-12.002-8.999-12.002,0c0,7.002-7.002,12.002-15,12.002C1042.998,560,1040,542.998,1040,468.999z M1118.999,511.001
		c7.002-13.003,6.001-23.003-2.998-36.001C1100,452.998,1080,462.998,1080,493.999C1080,532.998,1102.002,542.998,1118.999,511.001z
		"/>
	<path fill="#FFFFFF" stroke="#FFFFFF" stroke-miterlimit="10" d="M1200,540c-56.001-56.001,21.001-142.998,85-96.001
		c12.998,8.999,19.004,26.001,19.004,51.001C1304.004,556.001,1242.998,582.998,1200,540z M1266.001,503.999
		c7.998-28.999-7.002-48.999-30-41.001c-16.001,6.001-22.002,48.003-8.999,60C1241.001,537.998,1260,528.999,1266.001,503.999z"/>
	<path fill="#FFFFFF" stroke="#FFFFFF" stroke-miterlimit="10" d="M1330,495c0-57.998,2.002-65,20-65c17.002,0,20,7.002,20,45
		c0,32.998,4.004,45,15,45c7.998,0,15,8.999,15,20c0,22.998-10,26.001-27.998,7.998c-9.004-8.999-12.002-8.999-12.002,0
		c0,7.002-7.002,12.002-15,12.002C1332.998,560,1330,546.001,1330,495z"/>
	<path fill="#FFFFFF" stroke="#FFFFFF" stroke-miterlimit="10" d="M1532.002,552.998c-19.004-6.997-4.004-22.998,23.994-22.998
		c33.008,0,30-16.001-5-22.998c-32.998-7.002-45-30-30.996-57.002c7.002-13.999,20.996-17.998,55-17.998l45,0.996v53.003
		c0,41.997-4.004,55-19.004,63.999C1580,560,1554.004,562.002,1532.002,552.998z M1590,481.001c0-13.999-17.998-23.003-30-16.001
		c-5.996,3.999-7.998,11.001-5,16.001C1562.998,492.998,1590,492.998,1590,481.001z"/>
	<path fill="#FFFFFF" stroke="#FFFFFF" stroke-miterlimit="10" d="M1827.002,548.999c-39.004-22.998-41.006-86.001-2.998-111.001
		C1860,412.998,1920,448.999,1920,495c0,28.999-32.002,65-57.002,65C1852.998,560,1837.002,555,1827.002,548.999z M1875,495
		c0-32.998-27.998-47.002-39.004-18.999c-10,25,3.008,56.001,22.002,51.997C1869.004,526.001,1875,515,1875,495z"/>
	<path fill="#FFFFFF" stroke="#FFFFFF" stroke-miterlimit="10" d="M1942.998,543.999c-2.002-6.001-2.998-32.998-0.996-60
		c2.002-36.997,7.002-50,20.996-51.997C1977.002,428.999,1980,436.001,1980,470c0,32.998,4.004,42.998,20,47.002
		c10.996,2.998,20,12.998,20,21.997c0,13.003-9.004,17.002-35.996,17.002C1964.004,556.001,1945.996,551.001,1942.998,543.999z"/>
	<path fill="#FFFFFF" stroke="#FFFFFF" stroke-miterlimit="10" d="M2050,540c-42.998-42.998-9.004-113.999,52.002-107.998
		c42.002,3.999,50,27.998,8.994,27.998c-43.994,0-47.998,17.998-3.994,22.002c33.994,2.998,37.998,5.996,35,27.998
		C2137.002,557.998,2085,575,2050,540z M2105,520c2.998-5-2.998-10-14.004-10c-11.992,0-20.996,5-20.996,10
		c0,6.001,5.996,10,14.004,10C2092.002,530,2102.002,526.001,2105,520z"/>
	<path fill="#FFFFFF" stroke="#FFFFFF" stroke-miterlimit="10" d="M2175.996,541.001c-18.994-21.001-11.992-48.003,15-56.001
		c28.008-8.999,23.008-25-6.992-25c-34.004,0-26.006-23.999,10-27.998c55.996-7.002,75.996,50,25.996,75l-24.004,11.997l28.008,10
		c15,6.001,23.994,15,20.996,21.001C2235,566.001,2194.004,561.001,2175.996,541.001z"/>
	<path fill="#FFFFFF" stroke="#FFFFFF" stroke-miterlimit="10" d="M2489.004,542.002c-29.004-24.004-31.006-79.004-3.008-99.004
		c22.002-15.996,76.006-12.998,82.002,5c2.002,8.003-7.002,12.002-27.002,12.002c-15.996,0-32.998,5-35.996,10
		c-4.004,6.001,10,10,34.004,10c33.994,0,40.996,2.998,40.996,20c0,22.998-32.998,60-54.004,60
		C2517.998,560,2502.002,552.002,2489.004,542.002z M2540,520c0-5-9.004-10-20.996-10c-11.006,0-17.002,5-14.004,10
		c2.998,6.001,12.998,10,20.996,10C2534.004,530,2540,526.001,2540,520z"/>
	<path fill="#FFFFFF" stroke="#FFFFFF" stroke-miterlimit="10" d="M823.999,390c-30-12.002-53.999-48.999-53.999-80.996
		C770,255.996,832.002,210,881.001,225c32.998,10.996,22.998,35-16.001,35c-53.999,0-72.998,52.002-33.999,91.001
		c15,15,27.998,18.999,46.001,13.999c20-5,23.999-2.002,20.996,12.002C893.999,397.002,857.002,403.999,823.999,390z"/>
	<path fill="#FFFFFF" stroke="#FFFFFF" stroke-miterlimit="10" d="M970,380c-7.998-16.001-7.998-20,3.999-20
		c8.999,0,20,8.999,26.001,20c7.998,16.001,7.998,20-3.999,20C987.002,400,976.001,391.001,970,380z"/>
	<path fill="#FFFFFF" stroke="#FFFFFF" stroke-miterlimit="10" d="M1240,375c0-21.001-5-25-27.998-25
		c-35,0-62.002-27.002-62.002-62.998c0-34.004,35-71.006,57.998-61.006c9.004,3.008,27.002,6.006,40,5
		C1268.999,230,1270,232.998,1270,315c0,68.999-2.998,85-15,85C1246.001,400,1240,391.001,1240,375z M1237.998,297.002
		c5-22.998-15.996-47.002-33.999-40c-13.999,5-18.999,43.994-6.997,57.002C1208.999,325.996,1235,315,1237.998,297.002z"/>
	<path fill="#FFFFFF" stroke="#FFFFFF" stroke-miterlimit="10" d="M1450,314.004c0-79.004,2.002-86.006,19.004-81.006
		c10,2.002,25.996,0,35-5c30-17.002,65.996,16.006,65.996,61.006c0,44.995-19.004,64.995-55,58.994c-22.002-5-25-1.997-25,23.003
		c0,21.997-5,28.999-20,28.999C1452.002,400,1450,392.998,1450,314.004z M1527.998,287.998C1525.996,267.002,1520,255,1510,255
		s-15.996,12.002-17.998,32.998C1489.004,315,1492.002,320,1510,320S1530.996,315,1527.998,287.998z"/>
	<path fill="#FFFFFF" stroke="#FFFFFF" stroke-miterlimit="10" d="M937.002,337.998c-9.004-6.997-19.004-25-22.002-40
		C910,277.002,913.999,265,935,245c20-20.996,32.002-25,52.998-20c34.004,7.998,52.002,30.996,52.002,65
		C1040,340,977.998,367.998,937.002,337.998z M995,285c0-32.998-21.001-40.996-37.998-14.004c-14.004,22.002-1.001,51.006,20,47.002
		C990,315.996,995,305,995,285z"/>
	<path fill="#FFFFFF" stroke="#FFFFFF" stroke-miterlimit="10" d="M1060,289.004c0-52.002,2.002-59.004,20-59.004
		c16.001,0,20,7.002,20,35c0,24.004,6.001,39.004,20,47.002c32.002,20,23.999,35-20,35h-40V289.004z"/>
	<path fill="#FFFFFF" stroke="#FFFFFF" stroke-miterlimit="10" d="M1317.002,332.002C1295.996,310,1295,270,1314.004,245
		c15-20.996,66.992-25,90-5c23.994,19.004,20.996,87.002-3.008,100C1370.996,355,1335,352.002,1317.002,332.002z M1384.004,304.004
		c7.998-20-12.002-56.006-27.002-51.006c-14.004,4.004-21.006,32.002-12.998,52.998C1350.996,325,1375.996,324.004,1384.004,304.004
		z"/>
	<path fill="#FFFFFF" stroke="#FFFFFF" stroke-miterlimit="10" d="M1607.002,342.998c-12.998-11.997-7.002-23.994,10.996-22.002
		c41.006,4.004,45-1.992,12.002-18.994c-67.002-32.998-45-84.004,32.998-75c36.006,5,37.002,5.996,37.002,47.998
		c0,25.996-5.996,50-15.996,58.999C1669.004,350,1619.004,356.001,1607.002,342.998z M1657.998,269.004
		c-2.002-6.006-7.998-10-12.998-10s-10.996,3.994-12.998,10C1630,275,1635.996,280,1645,280S1660,275,1657.998,269.004z"/>
</g>
</svg>
