<?xml version="1.0" encoding="utf-8"?>
<!-- Generator: Adobe Illustrator 16.0.0, SVG Export Plug-In . SVG Version: 6.00 Build 0)  -->
<!DOCTYPE svg PUBLIC "-//W3C//DTD SVG 1.1//EN" "http://www.w3.org/Graphics/SVG/1.1/DTD/svg11.dtd">
<svg version="1.1" id="Capa_1" xmlns="http://www.w3.org/2000/svg" xmlns:xlink="http://www.w3.org/1999/xlink" x="0px" y="0px"
	 width="1200px" height="600px" viewBox="0 0 1200 600" enable-background="new 0 0 1200 600" xml:space="preserve">
<g>
	<path fill-rule="evenodd" clip-rule="evenodd" fill="#B1B2B2" d="M239.083,393.842c-4.997-4.387-7.758-10.49-11.927-15.538
		c-6.408-7.761-12.703-15.597-19.408-23.119c-5.192-5.825-10.471-11.552-16.105-16.928c-24.855-23.713-51.426-45.045-82.764-59.84
		C97.935,273.25,86.708,269.002,75,265.99c0-0.667,0-1.333,0-2c13.857-0.388,27.592,0.467,41.12,3.777
		c1.884,0.461,3.95,0.178,5.931,0.238c0.919,0.341,1.839,0.683,2.759,1.023c0.392,0.338,0.783,0.676,1.174,1.014l-0.053-0.016
		c0.306,0.389,0.542,0.872,0.925,1.154c16.843,12.386,33.417,25.091,49.078,38.985c21.373,18.961,40.543,39.77,54.768,64.698
		C234.107,380.832,238.212,386.676,239.083,393.842z"/>
	<path fill-rule="evenodd" clip-rule="evenodd" fill="#FFFFFF" d="M482.006,241.352c0,2.226,0,3.819,0,5.412
		c0,16.493-0.155,32.988,0.109,49.478c0.066,4.134-1.263,5.126-5.061,4.844c-4.142-0.308-8.329-0.177-12.488-0.028
		c-2.421,0.086-3.498-0.385-3.487-3.221c0.112-29.82,0.105-59.641,0.025-89.461c-0.007-2.554,0.573-3.813,3.282-3.392
		c0.163,0.025,0.333,0.002,0.5,0.003c5.994,0.04,12.848-1.715,17.739,0.628c4.868,2.331,6.423,9.587,9.374,14.714
		c7.615,13.229,15.165,26.495,22.765,39.731c0.891,1.552,1.392,3.423,3.249,4.325c1.712-1.022,0.867-2.7,0.872-4.025
		c0.066-16.993,0.137-33.987-0.035-50.978c-0.035-3.429,0.764-4.826,4.374-4.443c5.402,0.571,12.673-2.313,15.744,1.141
		c2.678,3.014,0.833,10.125,0.839,15.425c0.031,24.989-0.077,49.979,0.107,74.967c0.028,3.767-0.919,5.12-4.661,4.597
		c-1.961-0.274-4.059-0.382-5.979,0.006c-8.912,1.798-13.454-2.42-17.453-10.13c-8.085-15.589-17.309-30.588-26.087-45.816
		C485.007,243.868,484.525,242.359,482.006,241.352z"/>
	<path fill-rule="evenodd" clip-rule="evenodd" fill="#FFFFFF" d="M856.496,301.014c-8.564,0-16.013-0.052-23.46,0.028
		c-2.515,0.027-3.323-1.828-4.422-3.444c-6.013-8.842-12.019-17.691-19.114-26.26c0,8.213-0.262,16.438,0.108,24.633
		c0.192,4.268-1.154,5.537-5.247,5.103c-5.069-0.538-11.894,2.106-14.787-1.061c-2.514-2.754-0.765-9.47-0.77-14.435
		c-0.028-25.302,0.062-50.604-0.1-75.905c-0.023-3.64,0.734-4.983,4.619-4.764c11.442,0.645,22.939-0.784,34.374,0.971
		c13.791,2.116,23.919,12.456,26.035,26.855c1.825,12.417-5.836,26.613-17.94,31.592c-4.767,1.96-3.803,3.406-1.509,6.458
		C841.552,280.456,848.626,290.27,856.496,301.014z M816.951,225.191c-8.853,0.08-7.306-0.757-7.438,6.746
		c-0.03,1.664-0.248,3.37,0.032,4.985c0.693,3.989-2.412,9.606,1.711,11.655c3.604,1.79,8.787,0.673,13.199-0.492
		c5.456-1.44,8.374-5.119,8.445-10.771c0.069-5.484-2.902-9.783-8.037-11.234C822.149,225.313,819.331,224.903,816.951,225.191z"/>
	<path fill-rule="evenodd" clip-rule="evenodd" fill="#FFFFFF" d="M1066.337,301.015c-6.426,0-12.753-0.125-19.07,0.063
		c-2.448,0.072-3.538-0.91-4.374-3.019c-2.323-5.857-4.896-11.617-7.188-17.486c-0.951-2.436-2.102-3.676-5.026-3.587
		c-7.821,0.239-15.657,0.187-23.483,0.023c-2.588-0.054-3.814,0.849-4.752,3.232c-2.365,6.017-5.071,11.898-7.565,17.866
		c-0.756,1.808-1.54,3.03-3.9,2.968c-6.483-0.173-12.976-0.06-20.128-0.06c4.821-11.523,9.485-22.614,14.104-33.723
		c8.076-19.422,16.17-38.838,24.14-58.304c1.133-2.765,2.43-4.114,5.726-4.098c11.495,0.056,11.516-0.103,16.092,10.734
		c11.863,28.09,23.707,56.188,35.55,84.286C1066.516,300.041,1066.431,300.231,1066.337,301.015z M1019.396,238.101
		c-0.377-0.047-0.754-0.095-1.132-0.142c-0.832,2.256-1.692,4.502-2.493,6.77c-4.573,12.949-4.568,12.953,9.099,12.063
		c0.222-0.014,0.421-0.37,0.85-0.772C1023.637,250.12,1021.517,244.11,1019.396,238.101z"/>
	<path fill-rule="evenodd" clip-rule="evenodd" fill="#FFFFFF" d="M783.025,301.009c-6.595,0-13.21-0.076-19.822,0.042
		c-2.266,0.04-2.68-1.471-3.323-3.005c-2.497-5.949-5.152-11.836-7.465-17.856c-0.935-2.433-2.213-3.227-4.764-3.175
		c-7.818,0.157-15.645,0.159-23.464,0.003c-2.552-0.052-3.836,0.757-4.79,3.167c-2.313,5.849-5.094,11.514-7.404,17.364
		c-0.973,2.463-2.026,3.677-4.939,3.549c-6.138-0.271-12.297-0.082-19.143-0.082c1.924-4.779,3.633-9.154,5.439-13.489
		c10.895-26.139,21.879-52.241,32.63-78.438c1.29-3.144,2.802-4.214,6.153-4.183c11.226,0.104,11.287-0.055,15.549,10.034
		c11.339,26.846,22.64,53.708,33.883,80.593C782.238,297.143,783.461,298.688,783.025,301.009z M743.024,256.946
		c-2.484-6.934-4.671-13.034-7.352-20.514c-2.493,6.975-4.45,12.494-6.443,18c-0.768,2.12,0.212,2.575,2.11,2.536
		C734.969,256.892,738.602,256.946,743.024,256.946z"/>
	<path fill-rule="evenodd" clip-rule="evenodd" fill="#FFFFFF" d="M553.822,253.035c0-14.653,0.101-29.308-0.076-43.958
		c-0.04-3.321,0.957-4.192,4.202-4.157c14.984,0.159,29.972,0.168,44.956-0.011c3.331-0.039,4.397,0.957,4.104,4.206
		c-0.476,5.251,2.183,12.302-1.068,15.287c-2.832,2.599-9.789,0.736-14.923,0.789c-4.329,0.045-8.663,0.124-12.986-0.034
		c-2.496-0.092-3.443,0.6-3.57,3.295c-0.685,14.493-0.761,14.489,13.748,14.489c4.663,0,9.333,0.159,13.984-0.063
		c2.921-0.14,3.716,0.9,3.57,3.706c-0.224,4.316-0.233,8.666,0.021,12.979c0.175,2.974-0.971,3.623-3.707,3.57
		c-7.989-0.155-15.986,0.068-23.975-0.117c-2.899-0.066-3.572,0.92-3.642,3.688c-0.357,14.155-0.437,14.152,13.599,14.153
		c5.162,0,10.327,0.104,15.485-0.046c2.416-0.071,3.63,0.335,3.483,3.182c-0.239,4.65-0.174,9.325-0.018,13.982
		c0.083,2.463-0.884,3.091-3.198,3.08c-15.652-0.077-31.305-0.121-46.956,0.029c-2.984,0.028-3.077-1.33-3.067-3.592
		C553.854,282.674,553.822,267.854,553.822,253.035z"/>
	<path fill-rule="evenodd" clip-rule="evenodd" fill="#FFFFFF" d="M918.736,271.237c1.832,0,3.695,0.22,5.486-0.047
		c3.456-0.514,4.938,0.731,5.369,4.269c0.568,4.671,4.205,6.624,8.348,7.336c4.597,0.79,8.776-0.396,11.119-4.764
		c2.02-3.766,1.707-7.693-0.761-11.303c-1.961-2.868-4.912-4.435-7.998-5.669c-3.844-1.537-7.824-2.727-11.678-4.241
		c-11.331-4.452-18.703-16.259-17.587-28.007c1.149-12.098,10.947-22.656,23.046-24.832c16.712-3.005,32.188,7.775,34.71,24.074
		c0.558,3.606,0.088,5.697-4.353,5.119c-2.947-0.384-5.984-0.03-8.98-0.083c-3.858-0.069-8.008,1.31-8.977-5.114
		c-0.558-3.692-4.839-4.462-8.623-4.183c-3.378,0.25-5.126,2.293-5.76,5.269c-0.788,3.699-0.017,7.249,3.596,9.011
		c4.896,2.388,10.035,4.293,15.11,6.305c14.672,5.817,21.766,17.029,20.037,31.777c-1.601,13.652-13.033,25.045-26.863,26.768
		c-14.908,1.855-29.114-6.125-34.307-19.274C905.379,272.776,906.503,271.237,918.736,271.237z"/>
	<path fill-rule="evenodd" clip-rule="evenodd" fill="#FFFFFF" d="M1075.975,271.243c1.498,0.006,2.998,0.046,4.495-0.002
		c3.476-0.11,6.521-0.814,6.725,4.864c0.165,4.598,4.759,6.431,9.189,6.799c4.711,0.391,8.521-1.274,10.554-5.783
		c1.946-4.32,0.631-9.469-3.228-12.548c-4.498-3.591-10.003-5.028-15.331-6.838c-12.273-4.17-19.781-14.14-19.928-26.338
		c-0.143-12.023,7.318-22.143,19.581-26.56c17.183-6.189,37.399,6.987,38.102,24.705c0.113,2.861-0.622,3.8-3.494,3.618
		c-3.647-0.232-7.321-0.038-10.983-0.064c-3.446-0.024-7.012,1.138-7.613-4.732c-0.384-3.735-4.598-4.826-8.395-4.62
		c-3.469,0.188-5.475,2.119-6.219,5.42c-0.805,3.572-0.009,6.609,3.26,8.621c4.835,2.975,10.289,4.539,15.512,6.609
		c19.417,7.7,24.03,23.896,17.186,40.878c-6.471,16.057-27.329,22.673-43.148,14.543c-9.79-5.031-15.759-12.938-17.217-24.036
		c-0.411-3.126,0.088-5.095,3.969-4.596C1071.283,271.477,1073.645,271.236,1075.975,271.243z"/>
	<path fill-rule="evenodd" clip-rule="evenodd" fill="#949F8B" d="M335.973,268.745c6.463,0.086,13.051,0.996,19.359,0.048
		c7.753-1.167,12.069,3.008,16.066,8.069c3.249,4.113,6.016,8.623,8.908,13.019c2.222,3.38,2.502,5.356-1.321,7.126
		c-6.639,1.25-13.563,0.525-20.043,2.878c-1.62-0.029-3.239-0.06-4.858-0.089c-3.454-3.248-7.365-1.661-11.183-1.057
		c-1.358-0.085-2.774,0.185-4.009-0.655c-1.769-1.825-3.969-0.908-6.019-0.945c-5.903-1.059-11.806-2.119-17.708-3.178
		c-20.173-6.473-40.402-12.779-60.046-20.783c-10.712-4.364-21.678-8.107-32.109-13.159c8.711,0.937,17.405,2.109,26.138,2.739
		c8.088,0.584,16.218,0.586,24.326,0.848c3.846,0.445,7.696,0.888,11.546,1.331C301.883,267.834,318.861,269.176,335.973,268.745z"
		/>
	<path fill-rule="evenodd" clip-rule="evenodd" fill="#ABABAA" d="M187.288,270.918c-4.019-3.934-9.472-4.925-14.408-6.944
		c-6.069-2.483-12.217-4.769-18.241-7.481c4.296-0.765,8.063,2.518,12.342,1.434c20.53,6.578,41.009,13.324,61.618,19.648
		c7.737,2.374,15.376,5.242,23.454,6.426c6.649,2.604,13.637,4.017,20.542,5.668c28.326,6.774,56.846,12.157,86.184,11.169
		c6.846,0.033,13.604-0.573,20.147-2.759c4.604-0.79,8.18,0.239,10.632,4.758c1.934,3.563,4.392,6.83,5.283,10.892
		c-1.771,0.849-3.491,1.838-5.326,2.511c-3.577,1.314-6.358,4.655-10.629,4.185c1.809-3.262,6.41-2.801,9.283-7.182
		c-17.427,6.977-34.65,8.605-51.544,11.779c-1.91,0.192-2.934-1.465-4.242-2.3c-4.696-2.997-9.435-4.693-15.233-4.957
		c-6.648-0.304-12.761-3.029-16.494-9.444c-2.774-4.769-8.754-7.111-14.175-5.946c-3.671,0.789-7.3,1.772-10.947,2.67
		c-5.793-1.229-10.555-4.788-15.89-7.067c-17.413-7.436-35.161-13.961-53.04-20.16c-1.574-0.546-3.061-1.521-4.535,0.117
		C196.825,276.263,192.788,272.049,187.288,270.918z"/>
	<path fill-rule="evenodd" clip-rule="evenodd" fill="#677786" d="M239.083,393.842c-0.871-7.166-4.977-13.01-8.381-18.978
		c-14.225-24.929-33.396-45.737-54.768-64.698c-15.66-13.894-32.235-26.599-49.078-38.985c-0.383-0.282-0.62-0.765-0.924-1.154
		c3.97-0.286,7.363,1.729,10.886,2.966c23.288,8.175,43.333,22.302,63.932,35.356c13.619,8.631,26.937,17.769,41.412,24.921
		c2.614,1.291,5.423,3.302,8.797,2.711c-9.854,22.896-7.477,46.667-5.447,70.671C243.37,402.383,241.227,398.111,239.083,393.842z"
		/>
	<path fill-rule="evenodd" clip-rule="evenodd" fill="#FFFFFF" d="M628.146,253.002c0-14.652,0.113-29.307-0.085-43.957
		c-0.045-3.33,0.859-4.342,4.135-4.125c4.145,0.274,8.339,0.305,12.479-0.005c3.594-0.27,4.416,1.046,4.394,4.48
		c-0.149,22.145,0.048,44.292-0.187,66.434c-0.045,4.299,1.256,5.327,5.309,5.115c6.477-0.338,12.987,0.059,19.475-0.155
		c2.921-0.097,3.663,0.916,3.536,3.667c-0.244,5.307,1.833,12.26-0.791,15.493c-2.737,3.369-9.976,0.93-15.238,1.021
		c-9.655,0.165-19.317-0.091-28.97,0.123c-3.268,0.072-4.197-0.823-4.155-4.134c0.185-14.651,0.08-29.304,0.08-43.957
		C628.133,253.002,628.14,253.002,628.146,253.002z"/>
	<path fill-rule="evenodd" clip-rule="evenodd" fill="#FFFFFF" d="M426.208,253.006c0-14.649,0.113-29.301-0.086-43.948
		c-0.044-3.299,0.791-4.366,4.096-4.143c4.143,0.279,8.337,0.305,12.475-0.004c3.547-0.265,4.446,0.943,4.418,4.429
		c-0.165,20.309-0.08,40.62-0.081,60.93c0,9.156-0.094,18.313,0.057,27.467c0.043,2.607-0.683,3.46-3.325,3.336
		c-5.637-0.266-13.016,1.89-16.458-0.911c-3.6-2.929-0.964-10.603-1.063-16.192c-0.184-10.319-0.053-20.642-0.053-30.964
		C426.195,253.006,426.201,253.006,426.208,253.006z"/>
	<path fill-rule="evenodd" clip-rule="evenodd" fill="#728492" d="M250.96,335.981c-3.374,0.591-6.183-1.42-8.797-2.711
		c-14.476-7.152-27.793-16.29-41.412-24.921c-20.6-13.054-40.645-27.181-63.932-35.356c-3.523-1.237-6.917-3.252-10.886-2.966
		c-0.001,0,0.052,0.016,0.052,0.015c-0.392-0.338-0.783-0.675-1.174-1.013c-0.92-0.341-1.84-0.683-2.759-1.023
		c-2.314-4.058-6.669-5.731-10.02-8.578c-1.336-1.136-3.241-1.614-3.986-3.436c0,0,0.491,0.021,0.491,0.021l0.481-0.101
		c2.856,0.314,5.352,1.558,7.854,2.886c21.629,11.491,43.515,22.424,66.855,30.118c2.019,0.666,3.981,1.764,6.247,1.175
		c0,0-0.043-0.072-0.043-0.072c0.199,1.254,1.296,0.962,2.081,1.208c4.779,1.829,9.808,2.689,14.767,3.828
		c12.373,2.838,25.191,3.906,36.983,9.042c4.825,2.102,9.477,4.6,14.208,6.916l-0.017-0.016c0.557,1.344,1.584,1.984,3.018,2.017
		l-0.02-0.028c0.345,0.346,0.69,0.691,1.035,1.036l-0.046-0.033c0.477,1.017,1.3,1.628,2.331,1.996
		C259.754,322.597,254.691,328.847,250.96,335.981z"/>
	<path fill-rule="evenodd" clip-rule="evenodd" fill="#FAE6A2" d="M252.054,284c-8.078-1.184-15.718-4.052-23.455-6.426
		c-20.608-6.324-41.087-13.07-61.618-19.648c-0.843-2.152-2.516-3.132-4.629-4.004c-7.907-3.268-15.333-7.469-22.385-12.321
		c-0.922-0.635-2.146-1.016-2.092-2.476l0.167-0.195c13.586,5.61,27.477,10.315,41.683,14.104
		c11.466,3.058,23.192,4.772,34.844,6.866c1.527,0.274,3.349,0.582,4.659-0.921c1.259,0.346,2.521,0.693,3.782,1.04
		c10.431,5.051,21.397,8.795,32.109,13.159c19.644,8.004,39.873,14.311,60.044,20.783c-14.408-0.571-28.368-4.036-42.497-6.439
		C265.795,286.353,259.161,283.761,252.054,284z"/>
	<path fill-rule="evenodd" clip-rule="evenodd" fill="#84909C" d="M348.477,243.893c2.24,2.605,4.48,5.211,6.72,7.817
		c-1.93,2.091-4.714,2.365-7.179,3.042c-15.535,4.274-31.452,5.315-47.487,5.273c-1.878-0.005-4.026-0.809-5.582,1.082
		c-5.272-1.136-10.545-2.271-15.818-3.405c-5.139-4.261-11.584-6.012-17.454-8.796c-12.539-5.947-25.799-10.147-38.832-14.881
		c11.275,1.04,22.263,3.822,33.427,5.505c5.509,0.831,10.922,3.402,16.69,1.479c10.006,0.941,19.895,3.071,30.004,2.981
		C318.141,246.115,333.308,244.49,348.477,243.893z"/>
	<path fill-rule="evenodd" clip-rule="evenodd" fill="#637C93" d="M302.966,243.991c-10.109,0.09-19.998-2.04-30.003-2.981
		c-9.431-1.64-18.71-3.923-27.932-6.475c-16.544-4.576-32.717-10.45-49.561-14.022c-2.072-0.439-5.253,1.056-6.413-2.285
		c7.285-0.006,14.57-0.012,21.854-0.018c2.629,3.38,6.678,2.149,9.964,2.613c20.265,2.858,40.355,6.924,60.827,8.408
		c16.749,1.214,33.415,1.544,50-1.443c1.579-0.284,3.849-0.176,4.331-2.611c5.848-0.76,5.094,3.217,4.883,6.806
		c-0.655,0.06-1.417-0.08-1.948,0.208c-9.022,4.897-18.806,7.304-28.763,9.41C307.851,242.1,304.291,240.118,302.966,243.991z"/>
	<path fill-rule="evenodd" clip-rule="evenodd" fill="#FFFFFF" d="M882.297,343.912c3.188,0.262,6.945-0.406,10.725-1.063
		c1.427-0.248,3.569-1.186,3.973,1.439c0.361,2.344-1.218,2.68-3.124,2.657c-4.313-0.051-2.717,2.802-1.497,4.163
		c2.352,2.626,2.531,5.714,2.58,8.742c0.182,11.345-6.484,17.022-18.398,16.012c-2.064-0.175-4.887-1.912-5.295,2.087
		c-0.369,3.618,2.011,4.544,4.949,4.787c4.455,0.369,8.948-0.13,13.37,1.135c4.956,1.417,7.528,4.622,8.14,9.562
		c0.632,5.108-1.83,10.826-6.096,12.728c-8.588,3.831-17.623,3.772-26.212,0.513c-7.229-2.742-7.79-14.586-1.148-19.117
		c2.479-1.693,2.103-3.061,2.405-5.766c0.818-7.327-3.795-12.988-4.123-19.689c-0.129-2.641-0.133-5.378,0.418-7.94
		c1.325-6.16,6.376-9.803,13.674-10.233C878.295,343.829,879.964,343.912,882.297,343.912z M880.102,387.953
		c-3.356,0.045-5.985,0.054-8.606,0.83c-4.311,1.276-5.663,4.207-5.339,8.366c0.315,4.038,2.64,5.755,6.48,6.225
		c4.176,0.511,8.313,0.559,12.434-0.223c4.314-0.818,5.974-3.723,6.07-7.901c0.1-4.359-2.327-6.371-6.254-6.981
		C883.086,387.987,881.236,388.021,880.102,387.953z M878.625,370.384c6.845,0.042,10.077-3.158,10.171-10.07
		c0.094-6.873-3.252-10.694-9.735-10.586c-8.168,0.134-10.22,2.391-10.451,10.521C868.412,367.207,871.716,370.341,878.625,370.384z
		"/>
	<path fill-rule="evenodd" clip-rule="evenodd" fill="#FFFFFF" d="M519.352,347.385c4.463,5.538,5.093,11.356,3.967,17.425
		c-1.474,7.943-7.759,11.832-17.426,11.082c-2.349-0.182-5.754-2.209-5.906,2.502c-0.131,4.045,3.016,4.16,5.922,4.357
		c3.813,0.259,7.712,0.104,11.422,0.865c6.797,1.394,9.28,4.899,9.084,11.663c-0.205,7.021-3.793,11.465-10.4,12.656
		c-5.951,1.074-11.939,1.124-17.897,0.052c-4.113-0.74-7.834-2.266-8.776-6.92c-1.033-5.107-0.981-10.243,3.857-13.509
		c2.535-1.712,3.754-3.051,1.736-5.78c-0.09-0.122-0.151-0.35-0.101-0.479c2.539-6.577-2.507-11.71-3.32-17.618
		c-1.738-12.63,3.768-20.039,16.408-19.758c4.502,0.101,8.964-0.075,13.428-0.937c1.504-0.29,4.359-1.853,4.607,1.602
		c0.249,3.473-2.685,1.915-4.341,2.334C521.14,347.043,520.652,347.121,519.352,347.385z M507.809,349.336
		c-6.55-0.167-10.484,3.659-10.68,10.389c-0.204,6.963,3.21,10.765,9.913,11.036c6.858,0.278,10.745-3.336,10.801-10.043
		C517.905,353.16,514.688,349.511,507.809,349.336z M506.947,387.955c-1.469,0.076-4.251-0.204-7.043,0.76
		c-4.035,1.393-5.206,4.249-5.079,8.11c0.13,3.955,2.241,6.066,6.034,6.693c4.299,0.711,8.62,0.852,12.884-0.068
		c5.004-1.08,6.752-3.984,6.308-9.602c-0.365-4.616-3.66-5.457-7.285-5.866C511.289,387.815,509.776,387.955,506.947,387.955z"/>
	<path fill-rule="evenodd" clip-rule="evenodd" fill="#BFBFBF" d="M257.969,311.012c-4.731-2.316-9.383-4.814-14.208-6.916
		c-11.792-5.136-24.61-6.203-36.983-9.042c-4.959-1.139-9.988-1.999-14.767-3.829c-0.38-0.944-1.131-1.247-2.081-1.207
		c0,0,0.042,0.072,0.043,0.072c-8.866-7.975-19.493-13.031-30.159-17.947c-11.592-5.343-23.654-9.51-35.77-13.682
		c4.395-0.782,8.552,0.798,12.613,1.734c14.612,3.371,29.117,7.212,43.631,10.999c2.449,0.639,4.727,1.555,6.999-0.276
		c5.501,1.131,9.539,5.344,14.783,7.015c16.782,7.216,32.446,16.474,47.736,26.376C252.737,306.209,256.453,307.325,257.969,311.012
		z"/>
	<path fill-rule="evenodd" clip-rule="evenodd" fill="#BFBFBF" d="M338.092,196.342c-0.268,1.298-0.298,1.961-0.543,2.532
		c-0.549,1.277-1.111,2.817,0.104,3.666c1.608,1.123,2.71-0.489,3.737-1.519c2.675-2.679,5.564-5.161,8.041-8.251
		c-0.287,6.149-1.547,12.042-5.663,16.813c-2.268,2.629-4.152,5.108-3.832,8.774c0.244,2.792-1.722,2.964-3.632,2.523
		c-9.487-2.193-19.064-3.874-28.718-5.08c-8.503-1.062-17.025-2.475-25.562-2.657c-18.792-0.4-37.598-0.121-56.398-0.119
		c-1.574,0-3.149,0-4.724,0c24.293-3.974,48.227-10.186,73.066-9.13c7.305,0.312,14.479,1.097,21.551,2.829
		c10.216,2.5,12.348,1.78,18.412-6.762C334.896,198.605,335.777,197.236,338.092,196.342z"/>
	<path fill-rule="evenodd" clip-rule="evenodd" fill="#86A0B7" d="M336.033,225.178c-0.482,2.435-2.751,2.327-4.331,2.611
		c-16.585,2.987-33.251,2.657-50,1.443c-20.472-1.484-40.563-5.55-60.827-8.408c-3.287-0.464-7.335,0.768-9.964-2.613
		c21.047-2.141,42.096-1.455,63.185-0.527c15.243,0.671,30.364,2.2,45.453,4.246C325.099,222.682,330.715,223.2,336.033,225.178z"/>
	<path fill-rule="evenodd" clip-rule="evenodd" fill="#FFFFFF" d="M827.831,393.98c-2.006,0.363-3.274-0.349-3.71-2.354
		c-0.105-0.486-0.273-0.96-0.436-1.432c-4.078-11.872-4.08-11.945-16.913-11.656c-4.113,0.093-8.928-1.662-12.162,0.759
		c-3.051,2.281-2.451,7.329-3.889,11.018c-0.241,0.62-0.512,1.233-0.69,1.872c-0.729,2.596-2.901,2.013-4.528,1.744
		c-2.681-0.442-0.951-2.521-0.657-3.52c4.271-14.482,8.705-28.917,13.099-43.362c1.688-5.546,3.457-11.069,5.023-16.649
		c0.691-2.469,1.908-3.446,4.572-3.408c2.588,0.036,3.4,1.321,4.04,3.433c6.08,20.022,12.222,40.026,18.319,60.042
		C830.471,392.34,831.507,394.648,827.831,393.98z M806.755,337.742c-3.466,11.446-6.737,22.138-9.922,32.857
		c-0.706,2.378,1.119,2.297,2.651,2.299c5.159,0.006,10.32-0.075,15.478,0.02c2.651,0.049,3.042-0.893,2.279-3.308
		c-2.203-6.967-4.02-14.059-6.323-20.989C809.806,345.278,809.729,341.497,806.755,337.742z"/>
	<path fill-rule="evenodd" clip-rule="evenodd" fill="#FFFFFF" d="M757.01,370.28c0,4.331-0.015,8.663,0.008,12.993
		c0.009,1.665-0.169,3.772,1.43,4.532c2.721,1.294,3.753,3.577,2.156,5.501c-1.625,1.958-5.134,0.921-6.215-0.72
		c-2.518-3.821-4.195-1.813-6.928-0.423c-6.256,3.184-13.149,3.606-19.008-0.415c-6.732-4.62-5.382-12.186-4.214-18.817
		c1.108-6.298,6.263-8.974,12.216-10.144c3.77-0.74,7.528-1.38,11.395-1.131c2.506,0.161,3.519-0.846,3.261-3.565
		c-0.544-5.76-3.276-8.635-9.258-8.921c-3.522-0.169-6.989,0.452-10.283,1.696c-2.206,0.833-2.949-0.416-3.752-2.038
		c-1.126-2.278,0.613-2.489,2.004-2.96c5.277-1.786,10.717-2.56,16.229-1.776c6.86,0.974,10.272,4.65,10.727,11.702
		c0.311,4.81,0.06,9.656,0.06,14.485C756.895,370.28,756.952,370.28,757.01,370.28z M750.976,373.574
		c-1.107-1.88,2.11-6.026-2.099-6.612c-4.881-0.68-10.003-0.393-14.622,2.023c-4.237,2.218-5.948,7.695-4.395,14.106
		c1.144,4.72,4.542,6.115,9,6.09C747.183,389.134,750.888,384.534,750.976,373.574z"/>
	<path fill-rule="evenodd" clip-rule="evenodd" fill="#FFFFFF" d="M1118.894,370.735c0,4.325,0,8.651,0,12.977
		c0,2.07,0.168,3.98,2.588,4.833c2.019,0.71,2.19,2.56,1.61,4.154c-0.769,2.119-3.531,1.788-4.21,1.053
		c-4.596-4.976-8.662-0.845-13.253-0.116c-13.086,2.077-18.536-0.548-20.297-11.248c-1.467-8.92,2.156-18.531,14.379-19.848
		c2.31-0.249,4.611-0.597,6.909-0.949c2.094-0.321,5.3,1.456,5.959-1.689c0.765-3.647,0.005-7.434-3.758-9.546
		c-2.22-1.246-4.767-1.538-7.266-1.146c-2.777,0.434-5.544,1.027-8.255,1.773c-2.16,0.595-2.977-0.47-3.728-2.188
		c-0.989-2.265,0.626-2.471,2.06-2.939c5.12-1.675,10.377-2.451,15.725-1.813c7.155,0.854,10.692,4.444,11.222,11.731
		c0.36,4.963,0.069,9.973,0.069,14.963C1118.729,370.735,1118.812,370.735,1118.894,370.735z M1112.869,373.262
		c-1.588-1.461,2.434-5.779-2.12-6.33c-4.866-0.589-9.954-0.421-14.56,1.986c-4.34,2.271-6.052,7.914-4.391,14.449
		c1.211,4.764,4.73,5.892,9.086,5.834C1109.155,389.091,1112.782,384.5,1112.869,373.262z"/>
	<path fill-rule="evenodd" clip-rule="evenodd" fill="#86A0B7" d="M223.01,260.02c-1.261-0.347-2.523-0.694-3.782-1.04
		c-3.912-4.469-9.843-4.665-14.813-6.852c-12.191-5.364-24.86-9.495-37.513-13.639c-1.344-0.44-3.028-0.488-3.651-2.193
		c3.152-0.102,6.316-0.029,9.438-0.36c2.114-0.225,4.724,1.348,6.281-1.416c0.628-0.075,1.257-0.151,1.886-0.229
		c0.251,0.835,0.691,1.417,1.627,1.655c7.834,1.992,15.659,4.021,23.487,6.039c10.024,3.385,20.125,6.562,30.053,10.209
		c12.28,4.513,24.966,7.623,37.455,11.409c-8.111-0.259-16.242-0.261-24.33-0.845C240.415,262.129,231.721,260.956,223.01,260.02z"
		/>
	<path fill-rule="evenodd" clip-rule="evenodd" fill="#FFFFFF" d="M935.885,371.014c-7.475,0.074-14.955,0.33-22.423,0.146
		c-3.68-0.09-4.532,1.271-4.229,4.68c0.993,11.156,7.488,15.668,19.146,13.022c1.447-0.328,2.948-0.654,4.254-1.317
		c2.216-1.126,2.499,0.729,3.258,1.863c1.226,1.835-0.318,2.332-1.514,2.787c-6.552,2.494-13.301,2.964-20.028,1.079
		c-7.435-2.083-9.481-8.452-10.47-14.995c-1.197-7.929-1.123-15.911,1.521-23.664c2.652-7.772,9.11-11.477,18.668-10.674
		c8.433,0.709,11.796,3.888,13.386,12.639c0.807,4.444,0.896,8.91,0.432,13.396C937.039,369.978,936.281,370.147,935.885,371.014z
		 M920.97,365.904c0-0.015,0-0.029,0-0.044c2.818,0,5.637-0.006,8.455,0.003c1.181,0.004,2.315-0.003,2.925-1.318
		c1.749-3.776-1.552-12.934-5.245-14.498c-7.738-3.275-15.478,0.818-17.07,9.03c-1.256,6.476-0.979,6.821,5.466,6.827
		C917.323,365.906,919.146,365.904,920.97,365.904z"/>
	<path fill-rule="evenodd" clip-rule="evenodd" fill="#FFFFFF" d="M670.92,371.004c-7.813,0.08-15.625,0.269-23.437,0.186
		c-3.017-0.032-4.054,0.793-3.854,4c0.735,11.756,7.503,16.574,19.519,13.573c1.285-0.321,2.626-0.606,3.783-1.211
		c2.062-1.074,2.531,0.388,3.346,1.688c1.146,1.835-0.13,2.39-1.403,2.86c-7.4,2.733-14.864,3.438-22.296,0.206
		c-3.379-1.47-5.691-4.18-6.651-7.688c-2.815-10.299-3.066-20.704,0.184-30.918c2.286-7.181,9.593-10.712,18.726-9.748
		c8.135,0.859,12.079,4.679,13.093,13.087c0.515,4.271,0.869,8.592,0.143,12.9C671.688,370.294,671.304,370.649,670.92,371.004z
		 M655.146,365.874c0-0.007,0-0.014,0-0.021c2.819,0,5.639,0.032,8.456-0.016c1.118-0.019,2.363,0.179,3.063-1.112
		c1.984-3.662-1.97-13.522-5.961-14.836c-8.056-2.652-14.66,1.188-16.377,9.521c-1.236,6.007-0.865,6.457,5.347,6.464
		C651.499,365.876,653.323,365.874,655.146,365.874z"/>
	<path fill-rule="evenodd" clip-rule="evenodd" fill="#BFBFBF" d="M205.969,241.985c-7.828-2.018-15.653-4.046-23.487-6.039
		c-0.936-0.238-1.375-0.819-1.627-1.655c1.929-1.75,4.317-1.175,6.575-1.316c8.469-0.532,17.01,1.083,25.432-0.849
		c3.53-0.433,6.437,2.414,9.983,1.899c13.033,4.734,26.293,8.934,38.832,14.881c5.87,2.784,12.315,4.535,17.454,8.798
		c-1.989,0.457-3.937,0.161-5.932-0.117c-21.141-2.942-41.385-9.416-61.729-15.518C209.714,241.543,207.825,239.917,205.969,241.985
		z"/>
	<path fill-rule="evenodd" clip-rule="evenodd" fill="#FFFFFF" d="M1041.85,369.038c0-6.826-0.023-13.652,0.019-20.478
		c0.009-1.406-0.455-3.203,1.716-3.568c1.773-0.299,3.091-0.222,3.455,2.25c0.329,2.232,1.836,1.082,2.857,0.246
		c4.793-3.922,10.471-4.001,16.133-3.392c5.615,0.604,8.883,3.683,9.77,9.119c2.078,12.733,0.615,25.587,1.002,38.381
		c0.076,2.495-1.701,2.295-3.407,2.471c-2.821,0.291-2.933-1.68-2.946-3.484c-0.075-9.972-0.172-19.946-0.018-29.917
		c0.103-6.679-1.908-10.26-6.733-10.94c-8.631-1.221-13.485,1.4-14.801,8.58c-1.904,10.389-0.514,20.927-0.923,31.389
		c-0.055,1.413,0.664,3.114-0.847,4.156c-1.999,1.38-5.19-0.308-5.221-2.836c-0.085-7.324-0.03-14.651-0.03-21.977
		C1041.867,369.038,1041.858,369.038,1041.85,369.038z"/>
	<path fill-rule="evenodd" clip-rule="evenodd" fill="#FFFFFF" d="M564.931,371.019c-7.491,0.075-14.984,0.27-22.473,0.173
		c-3.316-0.043-4.66,0.489-4.24,4.445c1.556,14.646,9.255,14.479,19.45,13.123c1.456-0.194,2.859-0.873,4.251-1.418
		c1.947-0.763,2.191,0.935,2.849,1.943c0.649,0.997,0.29,1.733-0.675,2.488c-5.537,4.336-22.159,3.04-26.823-2.248
		c-1.644-1.863-3.09-3.935-3.163-6.604c-0.477-7.615,0.623-15.295-0.935-22.867c2.03-13.773,13.041-20.033,25.879-14.715
		c2.559,1.061,4.598,2.773,5.642,5.325c2.57,6.29,2.393,12.958,2.356,19.581c-0.002,0.235-0.729,0.466-1.119,0.698
		C565.542,370.229,565.214,370.331,564.931,371.019z M549.729,365.877c2.813,0,5.625,0,8.438,0.001c1.342,0,2.697,0.035,3.273-1.567
		c1.188-3.312-1.489-11.804-4.293-13.61c-4.208-2.71-11.871-1.845-15.173,1.817c-3.085,3.421-4.35,8.007-3.256,11.957
		c0.881,3.184,5.274,0.813,8.039,1.38C547.709,366.05,548.735,365.886,549.729,365.877z"/>
	<path fill-rule="evenodd" clip-rule="evenodd" fill="#FFFFFF" d="M470.967,349.941c-1.156-0.107-2.311-0.22-3.467-0.319
		c-9.364-0.805-13.716,2.571-14.27,12.217c-0.533,9.284-0.228,18.617-0.29,27.928c-0.014,2.129,0.487,4.282-3.028,4.341
		c-3.569,0.06-3.055-2.129-3.056-4.246c-0.008-13.637-0.031-27.274,0.026-40.911c0.006-1.478-0.802-3.532,1.745-3.983
		c1.949-0.346,2.893,0.195,3.373,2.414c0.496,2.298,1.969,0.789,2.928,0.019c4.979-3.998,10.827-4.021,16.613-3.185
		c5.93,0.857,8.546,4.105,9.466,10.565c1.366,9.597,0.689,19.25,0.551,28.876c-0.031,2.16,0.177,4.285,0.18,6.427
		c0.007,4.305-1.187,4.906-5.732,2.866c2.256-11.957,0.254-23.971,1.041-35.946c-0.427-0.005-0.854-0.009-1.28-0.014
		c0,11.085,0,22.171,0,33.256c-1.136-7.255-0.245-14.557-0.494-21.833c-0.153-4.481-0.197-8.967-0.29-13.45
		c1.552-1.559,1.389-3.396,0.242-4.896C474.079,348.569,472.434,348.494,470.967,349.941z"/>
	<path fill-rule="evenodd" clip-rule="evenodd" fill="#FFFFFF" d="M605.308,358.648c-2.369-8.312-4.812-9.978-13.159-8.979
		c-6.175,0.737-9.126,4.253-9.34,11.954c-0.258,9.309-0.136,18.627-0.229,27.939c-0.021,2.028,0.683,4.315-2.878,4.568
		c-3.64,0.26-3.194-1.967-3.221-4.083c-0.109-8.608-0.572-17.237-0.113-25.817c0.285-5.315-1.23-10.604,0.083-15.862
		c0.292-1.171-0.447-2.91,1.403-3.328c1.492-0.336,2.777-0.328,3.532,1.654c1.085,2.85,2.69,0.644,3.875-0.061
		c4.839-2.876,10.123-3.254,15.436-2.479c6.226,0.908,9.242,4.073,9.658,10.82c0.521,8.454,0.33,16.952,0.426,25.431
		c0.038,3.326-0.045,6.655,0.045,9.979c0.12,4.443-2.067,4.394-5.152,2.77c0.41-0.676,1.171-1.349,1.177-2.028
		c0.088-9.888,0.072-19.774,0.088-29.663C606.938,360.201,606.454,359.238,605.308,358.648z"/>
	<path fill-rule="evenodd" clip-rule="evenodd" fill="#86A0B7" d="M222.844,234.026c-3.546,0.515-6.453-2.332-9.983-1.899
		c-9.658-3.664-19.867-3.984-29.967-5.143c-13.067-1.5-26.18-0.636-39.34-1.907c10.414-1.391,20.835-2.736,31.239-4.2
		c3.056-0.431,6.442,0.381,8.821-2.964c0.56-0.787,3.564,0.164,5.444,0.316c1.158,3.34,4.339,1.845,6.412,2.285
		c16.844,3.572,33.017,9.446,49.561,14.022c9.222,2.551,18.501,4.835,27.932,6.475c-5.769,1.922-11.182-0.648-16.691-1.479
		C245.107,237.848,234.12,235.065,222.844,234.026z"/>
	<path fill-rule="evenodd" clip-rule="evenodd" fill="#FFFFFF" d="M1002.728,367.83c-0.004,4.325-0.046,8.65,0.007,12.975
		c0.075,6.201,1.266,7.454,7.538,8.04c2.042,0.189,4.664-0.584,4.342,3.024c-0.305,3.396-2.873,2.077-4.563,2.082
		c-10.439,0.028-13.328-2.882-13.354-13.248c-0.021-8.982-0.101-17.966,0.047-26.946c0.047-2.833-0.407-4.461-3.739-4.097
		c-1.689,0.184-3.957,0.593-3.981-2.314c-0.022-2.678,1.848-2.813,3.798-2.584c3.07,0.361,4.12-1.024,4.119-3.989
		c-0.002-2.468,0.646-4.93,0.777-7.406c0.12-2.284,1.259-3.424,3.4-3.404c2.555,0.021,1.296,2.134,1.604,3.362
		c0.118,0.47,0.015,0.992,0.014,1.491c-0.009,9.141-0.013,9.188,8.983,9.88c1.729,0.133,2.887,0.35,2.858,2.44
		c-0.026,1.882-0.761,2.566-2.69,2.652c-2.92,0.13-6.703-1.504-8.547,0.847c-1.833,2.338-0.465,6.087-0.59,9.212
		C1002.646,362.504,1002.73,365.169,1002.728,367.83z"/>
	<path fill-rule="evenodd" clip-rule="evenodd" fill="#949F8B" d="M257.969,311.012c-1.516-3.687-5.231-4.803-8.163-6.702
		c-15.29-9.903-30.954-19.16-47.736-26.376c1.476-1.638,2.962-0.664,4.536-0.118c17.878,6.199,35.627,12.725,53.04,20.16
		c5.335,2.279,10.097,5.838,15.89,7.067c-3.485,3.374-6.545,7.192-10.537,10.034c-0.703-1.252-1.863-1.221-3.059-1.09l0.046,0.033
		c-0.345-0.345-0.69-0.69-1.035-1.036l0.02,0.028c-0.066-2.079-1.484-2.136-3.018-2.017L257.969,311.012z"/>
	<path fill-rule="evenodd" clip-rule="evenodd" fill="#84909C" d="M400.907,333.97c-0.817,2.992-1.645,5.935-2.049,9.071
		c-0.862,6.696-3.835,8.954-10.636,9.116c-1.787,0.043-3.461-0.092-5.062,1.327c-4.872,4.315-10.019,3.771-13.863-1.582
		c-2.179-3.033-3.798-6.469-5.668-9.725c6.752-1.72,13.503-3.44,20.255-5.16c1.066,0.623,2.147,0.258,3.281,0.216
		C391.982,337.056,396.047,333.844,400.907,333.97z"/>
	<path fill-rule="evenodd" clip-rule="evenodd" fill="#FFFFFF" d="M952.949,392.991c-1.688,1.68-3.372,1.697-5.049-0.02
		c2.341-1.057,2.013-3.165,2.012-5.133c-0.008-14.235-0.022-28.47-0.034-42.704l10.115-0.204c3.547-1.118,7.206-1.322,10.853-0.966
		c6.246,0.609,9.592,3.751,10.47,10.061c1.728,12.422,0.443,24.915,0.525,37.374c0.028,4.201-2.911,2.592-5.129,1.817
		c0.308-0.387,0.879-0.771,0.884-1.16c0.136-11.815,0.236-23.633,0.275-35.448c0.004-1.399-1.084-0.796-1.83-0.656
		c-1.791-4.86-5.385-6.593-10.419-6.584c-6.179,0.01-9.802,3.067-11.766,8.611c-2.454,0.384-1.968,2.309-1.973,3.893
		c-0.027,9.16-0.02,18.32-0.007,27.479C951.879,390.656,951.633,392.062,952.949,392.991z"/>
	<path fill-rule="evenodd" clip-rule="evenodd" fill="#86A0B7" d="M294.948,261.107c1.556-1.891,3.704-1.087,5.582-1.082
		c16.035,0.042,31.952-0.999,47.487-5.273c2.465-0.677,5.249-0.952,7.179-3.042c3.026,3.011,4.104,7.127,6.091,10.728
		c1.775,3.217,0.025,3.647-2.683,3.631c-10.298-0.059-20.547-1.554-30.863-1.026c-1.99,0.102-3.983,0.153-5.971,0.227
		c-3.592-0.309-7.187-0.615-10.782-0.922C305.637,263.295,300.096,263.172,294.948,261.107z"/>
	<path fill-rule="evenodd" clip-rule="evenodd" fill="#FAE6A2" d="M378.887,320.426c4.271,0.468,7.052-2.873,10.629-4.188
		c1.835-0.673,3.554-1.662,5.326-2.511c2.224,3.748,5.387,7.183,4.075,12.123c-0.979,0.051-1.96,0.102-2.94,0.152
		c-4.677,1.355-9.355,2.713-14.033,4.069l0.099-0.054c-1.708,0.254-3.625-0.559-5.08,0.993c-1.95,0.341-3.907,0.644-5.847,1.028
		c-6.505,1.29-13.23,0.334-19.701,1.948c-1.976-0.335-3.099-1.977-4.616-3.013c8.966-2.766,17.929-5.53,26.893-8.296
		c1.338,0.446,2.149-0.084,2.549-1.375C377.047,320.785,377.82,320.161,378.887,320.426z"/>
	<path fill-rule="evenodd" clip-rule="evenodd" fill="#FFFFFF" d="M434.062,360.993c0.001,9.487,0.028,18.974-0.02,28.459
		c-0.01,2.122,0.932,4.698-3.116,4.599c-4.094-0.101-2.937-2.81-2.943-4.837c-0.058-19.139-0.033-38.278-0.02-57.418
		c0.001-2.082-0.643-4.369,2.919-4.434c3.862-0.069,3.177,2.415,3.178,4.672C434.063,341.688,434.061,351.34,434.062,360.993z"/>
	<path fill-rule="evenodd" clip-rule="evenodd" fill="#FFFFFF" d="M838.893,369.38c0.002-6.984-0.017-13.968,0.018-20.951
		c0.008-1.415-0.399-3.147,1.805-3.478c1.921-0.288,2.984,0.13,3.309,2.439c0.388,2.754,1.893,1.419,3.088,0.376
		c2.21-1.929,4.859-2.755,7.707-3.18c1.643-0.245,3.072-0.361,3.168,1.872c0.072,1.669,0.232,2.97-2.184,3.618
		c-8.027,2.158-10.459,5.488-10.67,14.371c-0.205,8.642-0.133,17.291-0.098,25.937c0.009,2.207-0.056,3.755-3.06,3.723
		c-2.961-0.031-3.13-1.544-3.109-3.777C838.93,383.347,838.89,376.363,838.893,369.38z"/>
	<path fill-rule="evenodd" clip-rule="evenodd" fill="#728492" d="M351.414,333.988c6.471-1.614,13.196-0.658,19.701-1.948
		c1.94-0.385,3.897-0.688,5.847-1.028c1.73-0.14,3.589,0.374,5.08-0.993c0,0-0.099,0.054-0.098,0.054
		c4.89-0.628,10.157,0.051,14.033-4.069c0.98-0.051,1.961-0.102,2.94-0.152c2.933-0.065,3.332,1.8,3.14,4.118
		c-6.058,2.35-12.115,4.698-18.173,7.049c-6.751,1.72-13.503,3.44-20.255,5.16C358.652,340.797,354.756,337.805,351.414,333.988z"/>
	<path fill-rule="evenodd" clip-rule="evenodd" fill="#FFFFFF" d="M682.937,345.146c1.077-0.094,2.795-0.907,2.951,0.632
		c0.474,4.686,2.184,3.221,4.568,1.353c1.97-1.544,4.368-2.363,6.953-2.459c1.313-0.049,2.881-0.538,2.9,1.563
		c0.015,1.52,0.722,3.463-1.977,3.721c-8.582,0.823-10.494,7.393-10.814,14.349c-0.399,8.641-0.227,17.309-0.206,25.965
		c0.006,2.473-0.122,4.488-3.463,3.462c-0.945-1.472-0.968-3.111-0.964-4.789C682.92,374.343,682.924,359.744,682.937,345.146z"/>
	<path fill-rule="evenodd" clip-rule="evenodd" fill="#FFFFFF" d="M713.834,369.478c-0.001,6.817-0.026,13.636,0.013,20.453
		c0.014,2.268,0.221,4.168-3.193,4.18c-3.699,0.013-2.828-2.328-2.908-4.325c-0.552-13.778-0.35-27.557-0.021-41.336
		c0.051-2.125-0.132-3.815,2.982-3.729c2.925,0.082,3.17,1.552,3.15,3.805C713.797,355.509,713.835,362.493,713.834,369.478z"/>
	<path fill-rule="evenodd" clip-rule="evenodd" fill="#728492" d="M302.966,243.991c1.325-3.874,4.885-1.891,7.239-2.389
		c9.957-2.106,19.741-4.513,28.763-9.41c0.53-0.288,1.293-0.148,1.948-0.208c3.37,3.429,6.999,6.695,7.56,11.909
		C333.308,244.49,318.141,246.115,302.966,243.991z"/>
	<path fill-rule="evenodd" clip-rule="evenodd" fill="#FFFFFF" d="M628.019,369.506c-0.001,6.981-0.053,13.963,0.029,20.943
		c0.026,2.273-0.177,3.682-3.124,3.665c-3.084-0.017-3.007-1.719-3.008-3.843c-0.012-13.782-0.084-27.565-0.076-41.349
		c0.001-2.054-0.419-4.316,3.147-4.215c3.487,0.1,3.034,2.209,3.032,4.354C628.018,355.876,628.02,362.691,628.019,369.506z"/>
	<path fill-rule="evenodd" clip-rule="evenodd" fill="#677786" d="M373.691,322.68c-8.964,2.766-17.927,5.53-26.893,8.296
		c-3.965-1.005-7.623-2.533-10.171-5.955c16.893-3.174,34.117-4.803,51.543-11.779c-2.874,4.381-7.474,3.92-9.283,7.182
		c-1.067-0.262-1.839,0.362-2.647,0.879C374.874,320.81,374.121,321.447,373.691,322.68z"/>
	<path fill-rule="evenodd" clip-rule="evenodd" fill="#FFFFFF" d="M1026.88,345.069c2.499-0.714,3.228,0.465,3.22,2.79
		c-0.041,14.424-0.055,28.847,0.004,43.271c0.012,2.453-0.797,3.406-3.224,2.577C1025.902,377.495,1025.403,361.282,1026.88,345.069
		z"/>
	<path fill-rule="evenodd" clip-rule="evenodd" fill="#FAE6A2" d="M310.989,264.348c3.595,0.307,7.19,0.613,10.782,0.922
		c0.017,2.537,1.698,2.596,3.652,2.715c3.518,0.215,7.134-0.805,10.55,0.761c-17.112,0.43-34.09-0.912-50.954-3.809
		c2.515-1.44,5.129-0.688,7.748-0.41C298.843,265.171,304.93,265.883,310.989,264.348z"/>
	<path fill-rule="evenodd" clip-rule="evenodd" fill="#FFFFFF" d="M682.937,345.146c-0.013,14.598-0.017,29.196-0.051,43.795
		c-0.004,1.678,0.019,3.317,0.964,4.789c-1.918,0.896-2.453-0.302-2.457-1.807c-0.035-15.096-0.028-30.192,0.004-45.289
		C681.398,345.775,681.855,345.054,682.937,345.146z"/>
	<path fill-rule="evenodd" clip-rule="evenodd" fill="#FFFFFF" d="M949.878,345.135c0.012,14.234,0.026,28.469,0.034,42.704
		c0.001,1.968,0.329,4.076-2.012,5.133c-0.303-0.208-0.345-0.46-0.125-0.756c-0.012-0.526-0.023-1.053-0.035-1.58
		c-0.081-14.097-0.183-28.193-0.216-42.291C947.521,346.843,947.048,344.694,949.878,345.135z"/>
	<path fill-rule="evenodd" clip-rule="evenodd" fill="#FFFFFF" d="M716.762,325.367c2.189-0.102,3.99-0.066,2.239,2.829
		c-1.614,2.671-3.15,5.398-4.553,8.186c-1.142,2.271-3.177,2.724-4.935,1.774c-1.933-1.043,0.113-2.554,0.541-3.738
		c0.834-2.309,2.041-4.479,3.019-6.739C713.81,325.977,714.89,324.968,716.762,325.367z"/>
	<path fill-rule="evenodd" clip-rule="evenodd" fill="#FFFFFF" d="M1026.88,345.069c-1.477,16.213-0.978,32.426,0,48.638
		c-0.984,0.436-1.88,0.515-2.474-0.613c0.128-1.797,0.361-3.596,0.366-5.394c0.044-14.201,0.044-28.402,0.058-42.604
		C1025.514,345.088,1026.197,345.079,1026.88,345.069z"/>
	<path fill-rule="evenodd" clip-rule="evenodd" fill="#FFFFFF" d="M952.949,392.991c-1.316-0.93-1.07-2.335-1.072-3.641
		c-0.013-9.158-0.021-18.318,0.007-27.479c0.005-1.584-0.481-3.509,1.973-3.893c-0.265,10.453-0.53,20.906-0.795,31.357
		c-0.01,0.999-0.02,2-0.029,3.001l0.155,0.352L952.949,392.991z"/>
	<path fill-rule="evenodd" clip-rule="evenodd" fill="#FFFFFF" d="M605.308,358.648c1.146,0.59,1.631,1.553,1.629,2.815
		c-0.016,9.889,0,19.775-0.088,29.663c-0.006,0.68-0.767,1.353-1.177,2.028c-0.201-0.171-0.222-0.362-0.063-0.574
		c-0.041-0.484-0.084-0.969-0.127-1.454c-0.548-10.42-0.438-20.844-0.077-31.267c0.088-0.111,0.271-0.256,0.246-0.331
		c-0.08-0.246-0.237-0.467-0.364-0.697L605.308,358.648z"/>
	<path fill-rule="evenodd" clip-rule="evenodd" fill="#FFFFFF" d="M1030.236,334.207c0.088,1.201,0.246,3.093-3.186,3.041
		c-4.137-0.062-2.677-2.869-2.896-4.866c-0.233-2.132-0.101-3.745,2.952-3.846C1031.134,328.403,1030.076,331.022,1030.236,334.207z
		"/>
	<path fill-rule="evenodd" clip-rule="evenodd" fill="#FFFFFF" d="M627.934,332.896c0.209,2.573,0.383,4.266-2.752,4.327
		c-3.803,0.075-3.262-2.4-3.336-4.589c-0.075-2.223,0.034-4.091,3.331-4.043C629.316,328.65,627.639,331.492,627.934,332.896z"/>
	<path fill-rule="evenodd" clip-rule="evenodd" fill="#FFFFFF" d="M1024.83,345.097c-0.014,14.201-0.014,28.402-0.058,42.604
		c-0.005,1.798-0.238,3.597-0.366,5.394c-1.231-7.863-0.356-15.775-0.544-23.662c-0.158-6.606-0.091-13.22,0.033-19.828
		C1023.923,348.105,1023.016,346.273,1024.83,345.097z"/>
	<path fill-rule="evenodd" clip-rule="evenodd" fill="#677786" d="M383.883,337.018c6.058-2.351,12.115-4.699,18.173-7.049
		c0.608,1.618-0.154,2.843-1.149,4.001c-4.86-0.126-8.925,3.086-13.743,3.264C386.031,337.275,384.95,337.641,383.883,337.018z"/>
	<path fill-rule="evenodd" clip-rule="evenodd" fill="#FFFFFF" d="M976.041,355.952c0.746-0.14,1.834-0.743,1.83,0.656
		c-0.039,11.815-0.14,23.633-0.275,35.448c-0.005,0.39-0.576,0.773-0.884,1.16l0.008-0.102c0.145-11.67,0.87-23.345-0.361-35
		C976.253,357.395,976.146,356.673,976.041,355.952z"/>
	<path fill-rule="evenodd" clip-rule="evenodd" fill="#BFBFBF" d="M378.926,298.078c-6.542,2.186-13.301,2.792-20.146,2.76
		c0.072-0.313,0.125-0.631,0.161-0.952c6.48-2.354,13.404-1.628,20.043-2.878C378.965,297.364,378.946,297.722,378.926,298.078z"/>
	<path fill-rule="evenodd" clip-rule="evenodd" fill="#FFFFFF" d="M475.766,390.245c0-11.085,0-22.171,0-33.256
		c0.427,0.005,0.854,0.009,1.28,0.014c-0.787,11.976,1.215,23.989-1.041,35.946c0,0-0.015-0.081-0.015-0.08
		c0.068-0.31,0.047-0.614-0.062-0.912C475.875,391.387,475.82,390.816,475.766,390.245z"/>
	<path fill-rule="evenodd" clip-rule="evenodd" fill="#FFFFFF" d="M533.173,360.054c1.558,7.572,0.458,15.252,0.935,22.867
		C531.641,375.387,532.403,367.721,533.173,360.054z"/>
	<path fill-rule="evenodd" clip-rule="evenodd" fill="#FFFFFF" d="M976.358,358.115c1.231,11.655,0.506,23.33,0.361,35
		C975.559,381.459,976.218,369.785,976.358,358.115z"/>
	<path fill-rule="evenodd" clip-rule="evenodd" fill="#8D9CA7" d="M178.969,234.52c-1.557,2.763-4.167,1.191-6.281,1.416
		c-3.121,0.331-6.285,0.259-9.438,0.36c-0.312-0.031-0.508-0.19-0.593-0.482c0.113-0.541,0.222-1.076,0.331-1.611
		C168.292,235.527,173.649,234.064,178.969,234.52z"/>
	<path fill-rule="evenodd" clip-rule="evenodd" fill="#86A0B7" d="M162.989,234.203c-0.109,0.535-0.218,1.07-0.331,1.611
		c-4.6,1.193-8.504-1.573-12.751-2.763C154.267,233.434,158.628,233.819,162.989,234.203z"/>
	<path fill-rule="evenodd" clip-rule="evenodd" fill="#FFFFFF" d="M470.967,349.941c1.466-1.447,3.111-1.372,4.257,0.125
		c1.147,1.5,1.311,3.337-0.242,4.896C473.76,353.195,472.916,351.126,470.967,349.941z"/>
	<path fill-rule="evenodd" clip-rule="evenodd" fill="#BFBFBF" d="M109.018,255.912l-0.481,0.101c0,0-0.491-0.021-0.491-0.021
		c-1.539-1.166-4.262-0.69-5.028-3.921C105.747,252.834,107.982,253.344,109.018,255.912z"/>
	<path fill-rule="evenodd" clip-rule="evenodd" fill="#BFBFBF" d="M261.939,313.987c1.195-0.131,2.355-0.162,3.059,1.09
		c-0.243,0.303-0.486,0.604-0.729,0.906C263.239,315.615,262.416,315.004,261.939,313.987z"/>
	<path fill-rule="evenodd" clip-rule="evenodd" fill="#BFBFBF" d="M101.731,251.122c-0.226,0.175-0.438,0.34-0.65,0.504
		c-0.25-0.339-0.501-0.679-0.752-1.019c0.289-0.078,0.628-0.286,0.855-0.2C101.422,250.499,101.553,250.871,101.731,251.122z"/>
	<path fill-rule="evenodd" clip-rule="evenodd" fill="#FFFFFF" d="M953.032,392.338c0.01-1.001,0.02-2.002,0.029-3.001
		C953.537,390.343,953.521,391.343,953.032,392.338z"/>
	<path fill-rule="evenodd" clip-rule="evenodd" fill="#FAE6A2" d="M137.875,239.125c-0.435-0.176-0.87-0.351-1.305-0.526
		c0.102-0.127,0.268-0.377,0.295-0.362c0.403,0.211,0.787,0.457,1.175,0.694C138.041,238.93,137.875,239.125,137.875,239.125z"/>
	<path fill-rule="evenodd" clip-rule="evenodd" fill="#FFFFFF" d="M935.885,371.014c0.396-0.866,1.154-1.036,2-1.038
		C937.833,371.508,936.803,371.153,935.885,371.014z"/>
	<polygon fill-rule="evenodd" clip-rule="evenodd" fill="#BFBFBF" points="98.345,249.452 98.619,249.38 98.58,249.609 	"/>
	<path fill-rule="evenodd" clip-rule="evenodd" fill="#FFFFFF" d="M605.286,358.832c0.127,0.23,0.284,0.451,0.364,0.697
		c0.025,0.075-0.158,0.22-0.246,0.331c-0.12-0.231-0.27-0.452-0.344-0.696C605.036,359.084,605.205,358.944,605.286,358.832z"/>
	<path fill-rule="evenodd" clip-rule="evenodd" fill="#FFFFFF" d="M564.931,371.019c0.283-0.688,0.611-0.79,1-0.075
		C565.598,370.968,565.264,370.993,564.931,371.019z"/>
	<path fill-rule="evenodd" clip-rule="evenodd" fill="#FFFFFF" d="M670.92,371.004c0.384-0.354,0.768-0.71,1.151-1.064
		C672.212,370.861,671.72,371.099,670.92,371.004z"/>
	<path fill-rule="evenodd" clip-rule="evenodd" fill="#FFFFFF" d="M605.481,391.127c0.043,0.485,0.086,0.97,0.127,1.454
		C605.128,392.135,605.08,391.65,605.481,391.127z"/>
	<path fill-rule="evenodd" clip-rule="evenodd" fill="#FFFFFF" d="M947.74,390.636c0.012,0.527,0.023,1.054,0.035,1.58
		C947.285,391.7,947.285,391.173,947.74,390.636z"/>
	<path fill-rule="evenodd" clip-rule="evenodd" fill="#FFFFFF" d="M475.929,391.957c0.109,0.298,0.129,0.603,0.062,0.912
		c-0.092-0.208-0.21-0.408-0.261-0.625C475.711,392.169,475.857,392.054,475.929,391.957z"/>
	<path fill-rule="evenodd" clip-rule="evenodd" fill="#677786" d="M124.811,269.029c0.392,0.338,0.783,0.675,1.174,1.013
		C125.593,269.705,125.202,269.367,124.811,269.029z"/>
	<path fill-rule="evenodd" clip-rule="evenodd" fill="#F5F5F5" d="M310.989,264.348c-6.059,1.535-12.146,0.823-18.222,0.179
		c-2.618-0.277-5.233-1.03-7.748,0.41c-3.85-0.443-7.7-0.886-11.546-1.331c-12.486-3.789-25.171-6.898-37.452-11.412
		c-9.928-3.648-20.028-6.824-30.053-10.209c1.855-2.067,3.745-0.441,5.5,0.085c20.344,6.102,40.588,12.575,61.729,15.518
		c1.995,0.278,3.943,0.574,5.932,0.117c5.273,1.132,10.546,2.267,15.819,3.403C300.096,263.172,305.637,263.295,310.989,264.348z"/>
	<path fill-rule="evenodd" clip-rule="evenodd" fill="#F5F5F5" d="M358.942,299.886c-0.036,0.321-0.089,0.639-0.161,0.952
		c-29.339,0.987-57.859-4.396-86.186-11.17c-6.905-1.651-13.893-3.064-20.542-5.668c7.108-0.239,13.743,2.353,20.613,3.522
		c14.128,2.404,28.089,5.869,42.497,6.439c5.905,1.06,11.808,2.119,17.711,3.177c1.843,1.354,3.987,0.792,6.019,0.946
		c1.235,0.84,2.65,0.57,4.009,0.656c3.705,0.59,7.343,1.896,11.183,1.056C355.703,299.826,357.322,299.856,358.942,299.886z"/>
	<path fill-rule="evenodd" clip-rule="evenodd" fill="#BFBFBF" d="M354.084,299.797c-3.84,0.84-7.478-0.466-11.183-1.056
		C346.719,298.136,350.63,296.549,354.084,299.797z"/>
	<path fill-rule="evenodd" clip-rule="evenodd" fill="#BFBFBF" d="M338.892,298.085c-2.031-0.154-4.176,0.408-6.019-0.946
		C334.923,297.177,337.123,296.26,338.892,298.085z"/>
	<path fill-rule="evenodd" clip-rule="evenodd" fill="#BFBFBF" d="M257.952,310.996c1.534-0.119,2.952-0.063,3.018,2.017
		C259.536,312.98,258.509,312.34,257.952,310.996z"/>
	<path fill-rule="evenodd" clip-rule="evenodd" fill="#FCFCFC" d="M189.93,290.019c0.95-0.04,1.701,0.263,2.081,1.207
		C191.226,290.98,190.129,291.272,189.93,290.019z"/>
	<path fill-rule="evenodd" clip-rule="evenodd" fill="#BFBFBF" d="M260.95,312.984c0.345,0.346,0.69,0.691,1.035,1.036
		C261.641,313.676,261.295,313.33,260.95,312.984z"/>
	<path fill-rule="evenodd" clip-rule="evenodd" fill="#F5F5F5" d="M395.976,326.003c-3.875,4.12-9.143,3.441-14.033,4.069
		C386.621,328.716,391.299,327.358,395.976,326.003z"/>
	<path fill-rule="evenodd" clip-rule="evenodd" fill="#F5F5F5" d="M382.042,330.019c-1.491,1.367-3.349,0.854-5.08,0.993
		C378.417,329.46,380.333,330.272,382.042,330.019z"/>
	<path fill-rule="evenodd" clip-rule="evenodd" fill="#ABABAA" d="M373.691,322.68c0.43-1.232,1.183-1.87,2.548-1.378
		C375.84,322.596,375.029,323.126,373.691,322.68z"/>
</g>
</svg>
